<?xml version="1.0" encoding="utf-8"?>
<!-- Generator: Adobe Illustrator 25.2.0, SVG Export Plug-In . SVG Version: 6.00 Build 0)  -->
<svg version="1.1" id="Layer_1" xmlns="http://www.w3.org/2000/svg" xmlns:xlink="http://www.w3.org/1999/xlink" x="0px" y="0px"
	 viewBox="0 0 200 200" style="enable-background:new 0 0 200 200;" xml:space="preserve">
<style type="text/css">
	.st0{fill:none;}
	.st1{fill:#608CBF;}
	.st2{fill:#3B3630;}
	.st3{fill:#595752;}
	.st4{fill:#4B5558;}
	.st5{fill:#454139;}
	.st6{fill:#4E4B44;}
	.st7{fill:#4B4C48;}
	.st8{fill:#454A58;}
	.st9{fill:#5B5750;}
	.st10{fill:#6D778B;}
	.st11{fill:#4B4C49;}
	.st12{fill:#5A8CE1;}
	.st13{fill:#4D4A45;}
	.st14{fill:#6678AE;}
	.st15{fill:#5A688D;}
	.st16{fill:#586789;}
	.st17{fill:#61729F;}
	.st18{fill:#66A1F0;}
	.st19{fill:#597498;}
	.st20{fill:#5F83B3;}
	.st21{fill:#77A2CE;}
	.st22{fill:#5E5F66;}
	.st23{fill:#637198;}
	.st24{fill:#5B5F5E;}
	.st25{fill:#636768;}
	.st26{fill:#636974;}
	.st27{fill:#44546D;}
	.st28{fill:#495F6E;}
	.st29{fill:#4E6C89;}
	.st30{fill:#52555A;}
	.st31{fill:#688094;}
	.st32{fill:#50606D;}
	.st33{fill:#4E5379;}
	.st34{fill:#5F6A71;}
	.st35{fill:#5F6D74;}
	.st36{fill:#6C7982;}
	.st37{fill:#56585C;}
	.st38{fill:#51524F;}
	.st39{fill:#444746;}
	.st40{fill:#465567;}
	.st41{fill:#5D7E9C;}
	.st42{fill:#515C7D;}
	.st43{fill:#5F7BC7;}
	.st44{fill:#52659D;}
	.st45{fill:#56718A;}
	.st46{fill:#6388A8;}
	.st47{fill:#72A5D1;}
	.st48{fill:#76A8D8;}
	.st49{fill:#506590;}
	.st50{fill:#899697;}
	.st51{fill:#617090;}
	.st52{fill:#7C868A;}
	.st53{fill:#6D89BC;}
	.st54{fill:#5282DE;}
	.st55{fill:#ADD7EB;}
	.st56{fill:#9AD0F3;}
	.st57{fill:#BDDBEA;}
	.st58{fill:#63A2F5;}
	.st59{fill:#5FA0F2;}
	.st60{fill:#6A90D2;}
	.st61{fill:#719EDA;}
	.st62{fill:#666A7D;}
	.st63{fill:#6781B9;}
	.st64{fill:#6082C2;}
	.st65{fill:#6078AF;}
	.st66{fill:#5F8DDF;}
	.st67{fill:#679FEB;}
	.st68{fill:#596987;}
	.st69{fill:#FEF8E6;}
	.st70{fill:#7AB2F0;}
	.st71{fill:#97C9F1;}
	.st72{fill:#57627F;}
	.st73{fill:#627EC0;}
	.st74{fill:#6376AF;}
	.st75{fill:#66778E;}
	.st76{fill:#799CC5;}
	.st77{fill:#677DA9;}
	.st78{fill:#566371;}
	.st79{fill:#475E7A;}
	.st80{fill:#4E6EA8;}
	.st81{fill:#507DC8;}
	.st82{fill:#5279A7;}
	.st83{fill:#5478AA;}
	.st84{fill:#476FBC;}
	.st85{fill:#546CA5;}
	.st86{fill:#545B74;}
	.st87{fill:#5C6684;}
	.st88{fill:#54658F;}
	.st89{fill:#547BBA;}
	.st90{fill:#4E5365;}
	.st91{fill:#5A6F90;}
	.st92{fill:#558AE5;}
	.st93{fill:#568CE6;}
	.st94{fill:#5478C5;}
	.st95{fill:#5A7BC0;}
	.st96{fill:#6DB8F9;}
	.st97{fill:#6EA5D9;}
	.st98{fill:#A5D5ED;}
	.st99{fill:#7BC1F5;}
	.st100{fill:#426DC6;}
	.st101{fill:#44526E;}
	.st102{fill:#777F7F;}
	.st103{fill:#6D88B1;}
	.st104{fill:#749FD6;}
	.st105{fill:#6683B4;}
	.st106{fill:#688BBE;}
	.st107{fill:#76C1F7;}
	.st108{fill:#5675B0;}
	.st109{fill:#5B82B7;}
	.st110{fill:#5FA9F9;}
	.st111{fill:#5890EB;}
	.st112{fill:#546993;}
	.st113{fill:#5FA5F4;}
	.st114{fill:#DEE8EA;}
	.st115{fill:#6EA9F3;}
	.st116{fill:#76ACEA;}
	.st117{fill:#66A2F4;}
	.st118{fill:#88BCF0;}
	.st119{fill:#82B1DE;}
	.st120{fill:#6F9FD9;}
	.st121{fill:#6BADF4;}
	.st122{fill:#5D75A8;}
	.st123{fill:#6CB6FB;}
	.st124{fill:#9DD2F0;}
	.st125{fill:#ADD5EF;}
	.st126{fill:#73B7F5;}
	.st127{fill:#58656F;}
	.st128{fill:#89CCF4;}
	.st129{fill:#8BCEF3;}
	.st130{fill:#A3D6EE;}
	.st131{fill:#80C6F3;}
	.st132{fill:#B0D8E8;}
	.st133{fill:#BDD7E5;}
	.st134{fill:#E9EBE8;}
	.st135{fill:#7BBFF9;}
	.st136{fill:#C5DEE8;}
	.st137{fill:#E3EAE8;}
	.st138{fill:#9ED2EF;}
	.st139{fill:#E4EBE7;}
	.st140{fill:#A8D4EA;}
	.st141{fill:#B7D6E7;}
	.st142{fill:#A2D4EE;}
	.st143{fill:#D2E3E8;}
	.st144{fill:#C1DDE5;}
	.st145{fill:#B4BAB6;}
	.st146{fill:#678DCA;}
	.st147{fill:#E1E9E8;}
	.st148{fill:#D1DEDD;}
	.st149{fill:#9CD2F1;}
	.st150{fill:#BCDBED;}
	.st151{fill:#6FA5E3;}
	.st152{fill:#678DD2;}
	.st153{fill:#6B9DCE;}
	.st154{fill:#79A7DB;}
	.st155{fill:#69A8ED;}
	.st156{fill:#5E646E;}
	.st157{fill:#6686B1;}
	.st158{fill:#6B8EC5;}
	.st159{fill:#5182DA;}
	.st160{fill:#659EE1;}
	.st161{fill:#5992E8;}
	.st162{fill:#5C81BA;}
	.st163{fill:#496392;}
	.st164{fill:#5772BE;}
	.st165{fill:#6397D8;}
	.st166{fill:#8AC0F2;}
	.st167{fill:#608BC8;}
	.st168{fill:#6C95BE;}
	.st169{fill:#87CBF3;}
	.st170{fill:#70BCF8;}
	.st171{fill:#516CA5;}
	.st172{fill:#5D82BD;}
	.st173{fill:#8FBDDB;}
	.st174{fill:#8AB3DB;}
	.st175{fill:#8FCCF4;}
	.st176{fill:#66A4EE;}
	.st177{fill:#5675C1;}
	.st178{fill:#729EC7;}
	.st179{fill:#97D1F1;}
	.st180{fill:#6BB7F9;}
	.st181{fill:#AAD3E9;}
	.st182{fill:#7FA5C0;}
	.st183{fill:#A3D4EF;}
	.st184{fill:#7BA1C6;}
	.st185{fill:#6EA1E1;}
	.st186{fill:#6D7F94;}
	.st187{fill:#8194A0;}
	.st188{fill:#96BFD7;}
	.st189{fill:#82A9D1;}
	.st190{fill:#86A8C5;}
	.st191{fill:#62B0F9;}
	.st192{fill:#60ACFA;}
	.st193{fill:#84C9F4;}
	.st194{fill:#63B0F9;}
	.st195{fill:#64B1F3;}
	.st196{fill:#64ACEA;}
	.st197{fill:#7197C7;}
	.st198{fill:#8CAFD3;}
	.st199{fill:#62768E;}
	.st200{fill:#91CAF4;}
	.st201{fill:#688FC2;}
	.st202{fill:#81B8F2;}
	.st203{fill:#ACD4EA;}
	.st204{fill:#A9CEEC;}
	.st205{fill:#5E6976;}
	.st206{fill:#4C5E78;}
	.st207{fill:#72BEFB;}
	.st208{fill:#62ADFB;}
	.st209{fill:#80C4F7;}
	.st210{fill:#6BB7FB;}
	.st211{fill:#4883DA;}
	.st212{fill:#81C9F5;}
	.st213{fill:#B1D9ED;}
	.st214{fill:#6EBBFA;}
	.st215{fill:#7CC2F4;}
	.st216{fill:#83ADD0;}
	.st217{fill:#74B9F5;}
	.st218{fill:#7FB9F0;}
	.st219{fill:#81C5F4;}
	.st220{fill:#76B6F4;}
	.st221{fill:#94C6F2;}
	.st222{fill:#99CEF0;}
	.st223{fill:#6FAFEA;}
	.st224{fill:#6BB5F9;}
	.st225{fill:#6897D2;}
	.st226{fill:#78B1F0;}
	.st227{fill:#5D88C7;}
	.st228{fill:#60AEF9;}
	.st229{fill:#99BFD0;}
	.st230{fill:#A1C5DA;}
	.st231{fill:#7DB0DE;}
	.st232{fill:#75A8DF;}
	.st233{fill:#9ABFD7;}
	.st234{fill:#9AD0EF;}
	.st235{fill:#658ED0;}
	.st236{fill:#80B7EB;}
	.st237{fill:#80C0F8;}
	.st238{fill:#BAD9E7;}
	.st239{fill:#6EA8E2;}
	.st240{fill:#A7D4F0;}
	.st241{fill:#77ABD7;}
	.st242{fill:#8DB2D6;}
	.st243{fill:#6099E3;}
	.st244{fill:#5789DF;}
	.st245{fill:#9AC8EE;}
	.st246{fill:#93BFDB;}
	.st247{fill:#7DB5E7;}
	.st248{fill:#BDDCE6;}
	.st249{display:none;fill:none;stroke:#333333;stroke-width:6.8183;stroke-miterlimit:10;}
</style>
<rect x="0" y="0" class="st0" width="200" height="200"/>
<path class="st1" d="M118.6,194c-9.3-3.3-2.5-9.2-7.9-15.1c-18.3-0.8-43.7,4.9-60.8-3c-14.2-2.9,13.6,19.6,27.4,11.6
	C100.5,179.8,92.8,201.1,118.6,194z"/>
<path class="st2" d="M9.5,131.9c-1.2-9,0.4-17.4,3-24.5c1.3-7.8-4.8-4.7-3.7-10.1C-1.4,85,6.7,126.6,9.5,131.9z"/>
<path class="st3" d="M116.2,8.4C116.2,8.4,116.2,8.4,116.2,8.4L116.2,8.4z"/>
<path class="st3" d="M109.1,6.7c39.5-3.2-71.3-5.3-35.8,8.5c10,3.1,21.2,4.3,31.4,5.7c3.2-0.7,2.4-6,6-2
	C146.7,14.6,130.7,11.4,109.1,6.7z"/>
<path class="st4" d="M33.3,77.2c-2.2-0.6-11.7,5.9-8.8,0.1c1.7-3-2.3-5-1.5-8.2c0.4-4.6-3.2-8.3-2.2-13c-2.1-8.3-7.5-2.7-5.2,2.8
	C21,68.1,2.7,78.7,14,79.8c-6,0.4-4.2,6.3,0.9,6.4c-7,1.2-4.3-3.9-9.2-5.1c-5.8,21.8,10.8,16.8,4,42.6c-2.7,8.3,3.9,16.5,7.2,24.2
	c3.6-14-1.6-16.9,6.9-29.4c2.7,8.1,6.2-17.6,3.4-17.1c-4.6-2-5,4.7-6.8,2.6c-6-6.8-4.5-13.4,5.1-14.3c7.3-1.3,3.1-3,6.1-6.6
	c1.1-1.5,2.9-0.9,4.4-1.3C39.3,79.9,36.1,76.4,33.3,77.2z"/>
<path class="st5" d="M7.9,72.5c4.9,0.4,2.9-7,3.6-10.1C10.2,65.7,8.9,69.1,7.9,72.5z"/>
<path class="st6" d="M48.8,22.6c5.7-0.9-2.4-9.4,10.3-1.4c4.5-4.5,14.1-2.8,11-6.8c7.1,1,1.5-2.3-1.9-2.9
	C64.1,8.5,42.3,18.9,48.8,22.6z"/>
<path class="st7" d="M24.6,43.9c2.3-0.2,5.3-0.5,4.7-3.6c-0.5-2.2,1.4-4.1,0.6-6.1C28.1,36.6,17.9,46.1,24.6,43.9z"/>
<path class="st7" d="M8.8,87.4c0.1,2.7,6.9-1.3,10,0.4c5.2,0.7,4.6-5.5-0.3-3.4c-1.5,1.7-6.9,0.3-6.8-1.7c0.6-2.3,6-1.4,7-3.4
	c-1.9-2.4-11.9,1.4-4.7-5.9c4.3-2.7,4.8-10.5,4.2-14.4c-4.2-3.1,0.3-6.6,0.3-9.8C12.8,60.9,2.1,75.2,8.8,87.4z"/>
<path class="st8" d="M22.3,149c-9.6-6.4-0.9,6.8,1.8,9.6C23.5,155.3,23.9,152,22.3,149z"/>
<path class="st9" d="M139.6,12.1c-0.8,2.1,6.3,3.6,7.9,4C145,14.7,142.4,13.4,139.6,12.1z"/>
<path class="st10" d="M181,47.8c-0.1,2.3-0.1,6.6,3.3,5.5C183.2,51.4,182.1,49.6,181,47.8z"/>
<path class="st11" d="M11.4,132.7c-5.7-3.2,6-25.3,0.6-24.1C-1.1,117.7,21.2,156.4,11.4,132.7z"/>
<path class="st12" d="M121.1,185.4c1.6-14.2-5.3-27.1-8.2-40.4c-1.8-1.7-1.5,3.6-7.3,4.3c2.6,3.7-0.2,11.2,2.7,12.9
	c2.4,0.2,2-2.7,3-4c4.3,1.9,2.5,9.6,1.8,13.4c1.2,9.9-0.2,5.6-2.8,10.7c4.4,4.6-3.2,8.6,6.2,12C128.9,192.1,121,194.2,121.1,185.4z"
	/>
<path class="st13" d="M116.5,5c-32.1-0.4,18.2,11.7,23.8,8.1C135.1,8.6,124.2,6.8,116.5,5z"/>
<path class="st14" d="M192.7,73.9c-9.6-3.7-3.7,10.5-5.3,16c-0.9,5.4,4.6,8.4,3.2,0.9C199.2,110.6,195,79,192.7,73.9z"/>
<path class="st15" d="M188.1,138.4c1.4-5,10.8-22.4,3.5-24.7c-2.8,0.2-2.5,3.5-3,5.5C189.2,126.1,190.4,131.7,188.1,138.4z"/>
<path class="st16" d="M85.3,190.5c-5.6-3.5-12.5,0-18.7-0.7C69.4,190.9,94.9,199.6,85.3,190.5z"/>
<path class="st17" d="M192.4,86c-4.9,2.2-2.1,6.1-3,9.7c3.1,7.1-4.3,15.4,0.9,22c1.6-6.5,1.9,0,3.8,1.7c1.5-7.4,2.2-15.2,1.9-22.9
	C192,94.4,191.3,90.7,192.4,86z"/>
<path class="st18" d="M129.5,181.2c-12.9-14.9-15.6,21.5,2.9,9C131.9,184,128.6,183.8,129.5,181.2z"/>
<path class="st19" d="M75.5,186.4c-3.8,0.7-7.5,2.1-11.3,2.5c7.2,5.3,21.7-2.9,21.7,5.9c1.1,0.2,2.2,0.3,3.3,0.4
	c0.4-2.8-2.2-7.4,2.7-7C104.1,184.7,78.3,184.6,75.5,186.4z"/>
<path class="st20" d="M96.9,188.9c-0.8-1.8-1-1.4,0.4-1.7c-0.6-0.9-1.2-0.8-1.8-0.9c-2.2,1.9-8.7-2.1-8.5,1.8
	C84.4,199.7,106.4,195.8,96.9,188.9z"/>
<path class="st21" d="M104.7,190.4c-1,0.1-0.5,2-2.4,0.7c-7.9-3.4-6.1-2.1-5.8,4.6C102.2,195.6,104.9,197.7,104.7,190.4z"/>
<path class="st22" d="M141.7,13.1c-10.4-1.8-20.2,4.3-30,5.1c-2.9-2.5-4.1-2.3-6.1,1.2C114.8,22.9,169.9,24.2,141.7,13.1z"/>
<path class="st23" d="M109.3,18.7c7.3,1.2,40.5-1.1,24.9,11.4c-4.5,2-3.5-7-7.4-4.8C103.3,38.7,68.3,18.3,109.3,18.7z"/>
<path class="st24" d="M58,20.2c9.6-15,38.1,0.1,13.1,2.8C69.1,19.4,56.7,24.7,58,20.2z"/>
<path class="st25" d="M66.4,20.5c7.1,0.2,6.1,5.1,7-1c1.8,6.7,5.2-0.3,7.7-3c6.2,0.8,12.5,1.5,18.8,2.3c-3.4,0-5.5,2-7.4,4.5
	c-3.8,0.3-7.7,0.4-11.5,1.1c-2.8,0-4.3,3.9-7,2.2C71.8,24.9,63.8,24.6,66.4,20.5z"/>
<path class="st26" d="M110.8,19.4c-1.3,0.4-4.8,1.3-5.1,0C107.4,19.6,109.1,17.4,110.8,19.4z"/>
<path class="st25" d="M104.5,19.9c-1.4,0.1-2.8-0.3-4-1.1C102.4,17.1,103.3,19.2,104.5,19.9z"/>
<path class="st27" d="M39.6,165.4c-2.2-2.3-4.7-4.4-4.6-7.7c0.1-3.8-4-5.1-4.4-0.9c2.2-17.1-6.6-11.3-2.6-18.7
	c1.9-1.9-0.7-2.7,1.3-4.8c-0.8-3.4,1.9-3.6,1.4-6.1c-6.6-6.2-2.3-6.7-5.3-8.6c-3.2,1.3-1.2,0.5-2.7,3c-2.8,3.7-1.1,9-2.1,12.8
	c-1.2,4.1-6.2,11.5-0.5,13.4c1.6-1.3,0.7,0.7,1.3,0.9c1.3,3,1.9-0.1,1.9-1.7C16.6,160.4,54.5,189.9,39.6,165.4z"/>
<path class="st28" d="M26.1,114.8c1.1-6.7,2.8-19.6-4.7-7.4c-0.6,0.4-1.3,1-1.5-0.1c-5.5-10.4-8.7-18.6,6.5-19.3
	c7.7-1.2-3.7-9.8,10.3-5.4c10.4-0.9,5.9,29.4-1,20.4c0.3-3.8-1-6.9-3.8-9.4C24.3,84.7,36.8,120.5,26.1,114.8z"/>
<path class="st29" d="M32.9,92.7c3.4,4.6,4.3,2.6,4.3,9.1c0.4,7.6,8.4-10.8,3.1-16c-7-5.8-9.6,5.9-10.2-5.1c1.7-0.6,3.4,0.3,5.1-0.1
	c2.6-0.8,10.7-4.4,10.4,0.5c-4.8,6.9,3.2,18.9-4.5,26c-1.1,2.1-4.3,5.1-2.9,7.5c0.2,3.5-4,5.3-4.9,8.6c-1,2.5,2.2,4.2,0.8,6.7
	c-0.3,1.4-2.1,2.6-3.3,1.2c-1-1.1,0.8-2.7-0.7-3.7c-0.8-0.6-2.2-0.1-2.8-1.2c0.7-3-1.5-6.5-0.3-9.9c6-4.2-3.3-30.6,3.6-26.7
	C35.5,92.4,30.5,95.1,32.9,92.7z"/>
<path class="st30" d="M37,39.2c-5.1,3.6-8-3-9.2,3.5c-1.7,1.4-3.3-0.2-5.2,0.2C7,59.5,32.7,57.4,26,52.3c3.3,0.4,5.7-2.9,7.2,1.8
	C41.5,62.6,47.2,36.4,37,39.2z"/>
<path class="st31" d="M27.2,54.5c-5.4-1.2-4.8-7.8-1-4.4c0.4,1.2,0.9,2,2.4,1.7c6.4,1.8-0.3,17.4,1.1,23c1.4,4.8-5.3,6.6-8.5,4.3
	c4.9-3.7-1.8-9.6,0.2-17.3C26.4,57.4,17.2,54.5,27.2,54.5z"/>
<path class="st32" d="M23.2,133.5c-2-2.2-0.3-9.2-0.6-12.5c-2.9-0.2-5.5,4.9-5.7,7.9c-0.1,5.3,2.1,10.9-1.2,15.9
	c0.2,2.2,2.1,4.1,3.1,6.1c-1.6-1.8,4.1-5.5,0.2-5c0.5-3.1,0.6-8.1,3.9-10.4C23.7,135,24.2,134.2,23.2,133.5z"/>
<path class="st33" d="M45.4,80.2c-3.5-0.7-6.8,1.2-10.2,0.5c6.2-5.5-2.9-22.7,12-14.1C48.3,69.1,50.7,81.8,45.4,80.2z"/>
<path class="st34" d="M37.5,77.3c0.2,2.4-9.5,0.9-13.5,3.9c-1,0.3-1.8,0.8-2.9,0.2c3.4-3.6,8.4-0.8,7-7.5c-1.2-7.7,4.7-8.6,5.8-0.9
	C37.9,67.9,38.5,73,37.5,77.3z"/>
<path class="st35" d="M22.8,54.6c5.1,4.2-1.1,5.8,1.9,6.7c0.6,0.2,1.6,0.2,1.3,1.1c-0.9,1.5-3.1-0.3-4.4-0.5
	C20.3,62.5,18.4,53.3,22.8,54.6z"/>
<path class="st28" d="M27.8,116.5c-0.4,3,1.5,7.2-0.6,9.6C26.7,123.9,23,115.5,27.8,116.5z"/>
<path class="st36" d="M22.7,129.5c-2.5-4.2,0.5-21.7,2.3-8.6C25.3,123.7,23.5,127.1,22.7,129.5z"/>
<path class="st30" d="M19.9,56.2c2.1,1.5,0.6,4,1.6,5.7C21.8,68.6,18.6,58.9,19.9,56.2z"/>
<path class="st27" d="M27.8,116.5c-2,0.9-3,0.4-1.7-1.7C27.6,115.3,28.1,114.5,27.8,116.5z"/>
<path class="st37" d="M39.1,25.5c-1.8,1.9-5,3.5-5.8,5.8c4.3,1.6,3.1,7.1,6.7,7.3C49.2,35.6,55.6,9.3,39.1,25.5z"/>
<path class="st38" d="M39,25.5c1-0.3,1.6-0.8,1.8-1.4C40.2,24.6,39.6,25.1,39,25.5z"/>
<path class="st38" d="M30.5,33.5c-0.4,0.4-0.7,0.8-1.1,1.2C30.1,34.5,30.3,34,30.5,33.5z"/>
<path class="st39" d="M49.6,19.7c-0.4,3.7-7.2,12.5,1.5,13.7c1.4,0.2,3.4-0.3,3.6-2.1c-0.2-4.6,4.7-8,4.3-10.9
	c-0.6-1.5-4.1-3.8-6.2-4.4C51.5,17.2,48.3,17.5,49.6,19.7z"/>
<path class="st40" d="M47.7,30.1c2.2,3,7.5,2.2,5.9-2c-0.8-1.6-0.6-2.6,1.3-3.2c2.1-0.7,3.1-2.7,4.2-4.4
	C64.3,52.1,40.8,32.7,47.7,30.1z"/>
<path class="st30" d="M28.4,37.5c1.7,5.9,4.1-2.7,3-4.9C29.8,33.9,28.8,35.5,28.4,37.5z"/>
<path class="st38" d="M27.8,42.6c0.5,4.4-2.5,3.1-3.4,0C25.5,42.7,26.7,41.9,27.8,42.6z"/>
<path class="st38" d="M28.4,37.5c0.4,1.3,2.4,1.6,2.3,2.6C28.4,41.1,27.6,39.8,28.4,37.5z"/>
<path class="st41" d="M58.5,179.5c-7.1-2.9-9.2,6.5-10.2-5.4c5.3-5.1,16.5-2.1,23.5-2.2c6,0.5,12.7-0.8,18.5,1.3
	c3.9,2,11.3-5.5,14-0.9c0.8,3.1,3.4,3.1,1,6.3c0.2,3.9-3.9,0.5-5.4,3.2c-3.6,1.8-10.4-0.6-14.5-0.4c0.3-3.2,1.3-4.9-2.1-4.9
	C76.9,177.5,61.4,173.4,58.5,179.5z"/>
<path class="st42" d="M43.5,176c-1.7,1.6,2.3,2.6,3.4,3.8C45.8,178.4,45.9,175.3,43.5,176z"/>
<path class="st43" d="M109.1,160.8c-1.1-10.5,6.1-4.4,6.4,2.1c0.4,3.8-1.4,7.9-0.5,11.4C114.2,193.7,102.3,168.4,109.1,160.8z"/>
<path class="st44" d="M51.2,158.1c0-4.8-7.9-2.5-3.9,0.6c-0.9-0.6-1.9-0.5-2.8,0.1c-2.3-0.1-0.9-3.8-3.5-3.6
	c-1.8-0.1-2.5,2.1-2.6,3.5c-1.7,4.5-4.7,1.9,0.2,7.3c7.4,2.5,0.2,10.1,9.3,14.5c-1.7-4.7,2.9-7,0.4-9.9
	C47.2,168.3,52.3,163.8,51.2,158.1z"/>
<path class="st45" d="M58.5,179.5C51,172.3,101,173,87,179.1c-0.8,0.4-1.5,1.7-2.5,1.1C76.4,178,67.1,180.9,58.5,179.5z"/>
<path class="st46" d="M62.4,180.1c4.1-4.1,10.8-1.2,16-1.7C105.2,181.4,66.1,182.6,62.4,180.1z"/>
<path class="st47" d="M108,168.7c0.6,4.9,8.5,17.2-4.2,10.8C106.5,180.9,102.8,169.7,108,168.7z"/>
<path class="st48" d="M103.3,187.7c-0.1,1.4-2.7,1.1-3-0.1C100,186.4,103.1,186.8,103.3,187.7z"/>
<path class="st49" d="M23.8,146.3c-0.4-7.5-3,9.7,0.3,12.3C23.5,154.5,24,150.4,23.8,146.3z"/>
<path class="st32" d="M19.8,147.8c1.8-0.5,1.3-2.3,1.9-3.9C22.6,146,21.8,151,19.8,147.8z"/>
<path class="st32" d="M22.7,150c0,0.6,0,1.2,0,1.7C21.4,150.8,21,147.7,22.7,150z"/>
<path class="st50" d="M172.2,42.2c-0.3,3.8,1.3,7.3,1.5,11c2,1.7,6.8,6.7,7.6,1.2C182.3,49.9,170.9,28.2,172.2,42.2z"/>
<path class="st51" d="M153.3,21.9c5-0.3-0.7-2.2-2.6-3.9C148.7,19.8,151,22.7,153.3,21.9z"/>
<path class="st51" d="M171.4,35.8c-2.2-4-7-7.2-10.5-10.5c0.4,4.3,7.4,5.3,7.9,10.3C169.2,36.9,170.4,37.2,171.4,35.8z"/>
<path class="st52" d="M179,47.6c0,13.3,7.7,5.1,0-2.7C179,45.8,179,46.7,179,47.6z"/>
<path class="st53" d="M181.7,57.5c-1.2,4.4,4,4.1,4.2,7.7c0.5,1.5-0.1,6.3,2.7,4.4C192.3,64.9,180.8,43.6,181.7,57.5z"/>
<path class="st54" d="M112.4,144.9c-1.3,14.7-10.7-1.5-13.8-4.5c-2.6-11,8.4-6,8.3-10.5c-2.6-2.7-5.4,3.2-8.3,3.4
	c-4.7,4.4-4.5-4.9,0.3-5.1c4-7,2.8-6,11.7-3.8C116.5,127,114.8,141.6,112.4,144.9z"/>
<path class="st55" d="M119.8,175.7c-5.2-15-0.9-31.1-3.5-45.5c-3.8-6.3,9.6-4.9,6.6,9C122.7,151.6,131,165.4,119.8,175.7z"/>
<path class="st56" d="M115.9,127.8c0.6,2.3,7,2.5,2.9,5.5c-0.6,1.6,2.5,3.5-0.7,4.2c-0.2,5.4,2.9,6.1,0.9,7.5
	c-3.2,5.9,1.9,15.4-1.5,19.9c-1.9-1.4,0.1-3.6-1.1-5.2c-0.5-4.1-2.6-7.7-3-11.9c-0.4-5.9,1.3-11.9,0.7-17.7
	C111.9,128.1,115.1,124.2,115.9,127.8z"/>
<path class="st57" d="M119.8,175.7c6.1-18.8,6.6-13.1,9.7,2.7c0.2,1.1,0.2,2.3-1.1,2.9C126.6,177.2,119.2,181,119.8,175.7z"/>
<path class="st58" d="M114.2,130.1c1.4,1,2.6,1.9,1,3.8c-1.7,8.4,0.8,17.3,1.3,25.8C111.4,151.1,111.5,137.7,114.2,130.1z"/>
<path class="st59" d="M103.4,144.9c7.7,4.1,4.9,33.6,2.6,16.3C107.2,155.8,100.6,149.1,103.4,144.9z"/>
<path class="st54" d="M108.5,165.3c0.1-1.5-0.4-3.1,0.5-4.5C109.9,162.4,109.7,163.9,108.5,165.3z"/>
<path class="st60" d="M190.3,106.3c-0.2,45.6-8.3,34.2-5.4-1.6C186.9,70.5,188.5,79.8,190.3,106.3z"/>
<path class="st61" d="M188.6,80.1c-2.6,5.2-0.9,11.4-1.2,17c-8.8-4.9-0.8-23-4-31.1c-2.5-6.3,3.8-6.6,4-1.6c-0.8,6,2.8,6.1,1.2,8.9
	C188.6,75.6,188.6,77.9,188.6,80.1z"/>
<path class="st62" d="M192.6,75.6c0.8-2.6-2.2-7.6-3-10.9C188.3,67.2,187.5,78.1,192.6,75.6z"/>
<path class="st10" d="M189.2,73.3c-0.9-4.8,2.7-6-0.5-11C188.5,65.6,186.8,71.1,189.2,73.3z"/>
<path class="st63" d="M190.3,106.3c-2.6-4.6-1.6-18.8,1.7-5.6C193.9,106,189.8,102.1,190.3,106.3z"/>
<path class="st64" d="M185.8,143.3c0.3-0.7,0.7-1.3,1-2C185.9,141.7,185.7,142.5,185.8,143.3z"/>
<path class="st65" d="M190.3,119.3c-2.3,7-3.7,14.8-3.5,22C192.1,130.4,191.4,130.8,190.3,119.3z"/>
<path class="st66" d="M164.5,171.1c-0.2,0-0.3,0.2-0.4,0.4C164.2,171.3,164.4,171.2,164.5,171.1z"/>
<path class="st67" d="M152.7,180c-4.1-1.2-11.6,0.5-10.2,6.1C145.7,184.2,150.5,182.1,152.7,180z"/>
<path class="st68" d="M160.5,172.7c-2.6,4.4,1.3,0.7,3-0.8C162.8,170.6,161,171.4,160.5,172.7z"/>
<path class="st69" d="M128.3,181.2c-8.5-20.1,2.8-53.2-22.3-60.1c-8,0.4-11.5-11-16.7-9.4c-7.9,6.8-13.5,10.3-24.1,10
	c-9-4.5,11.1-7.6,8.4-14.3c-4.1-4.3-6.2,14.4-13.7-1.6c-2.3-3.9,7.2-6.6,9.2-9.6c3.2-2.2,8.4,2.7,10.8,4.9
	c-3.4-4.9-14.9-17.3-7.2-21.7c2.4-1,2.9-4.7,6-4.6c2.3,1,2.5,3.3,1.4,4.7c-1.4,1.9,1.5,0.5,0.7,1.5c-1.2-12.9,34.3-26.5,29.3-6.5
	c-10.5,12.6,0.7,16.9,4.1,28.9c1.5,4.6,7.8,0.7,5.7-2.9c-5-7.7-10.3-14.4,1.8-18c10.9-19.9,21.6,37.3,14.2,43.7
	c27.3-7.4-3.8,42,0.7,54.4C137.2,185.1,128.1,185.7,128.3,181.2z"/>
<path class="st70" d="M143.9,180.4c-4.8,0.3-9.5,2.5-13.3,5.4C124.9,197.3,150.4,183.7,143.9,180.4z"/>
<path class="st71" d="M141,182.4c-7.6,0.6-3.8,3.6-10.3,3.5c-1.2-1.1-3.9-1.3-2.2-4c2,2,4.3,0.5,6.4,0.4c1.6-0.2-1.2-7,0.9-9.7
	c2.2,1.2,5.6,1.4,5,5.3C139.3,179.5,139.4,180.8,141,182.4z"/>
<path class="st72" d="M150.3,17.8c-15-3.1-14.5,3.8-14.5,3.8s-1.1,6-1.7,8c1.2,1,4.8,3.5,5.8,1.1c0.4-2.1,3.2-2.9,2.8-5.1
	C138.3,18,153.9,24.1,150.3,17.8z"/>
<path class="st73" d="M93.2,23.9c4.5-3.2,9.3,1.5,14.2,0.5c3.6,0.1,6,3.5,9.8,2.7c3.9,0.8,10.3-2.4,12.7,1.6
	c0.4,3.1,2.6,0.5,6.4,3.3c3.8,0,5.2-0.7,4.2,4.2c-2.6,2.2,1,7.1-2.7,8c-2.3,0.3-2.5-1.8-3.1-3.5c0.5-10.4-12.8-4.9-18.9-6.3
	c4.5,1.3,9.9-0.9,14.7,0.2c3.8,0.2,5.9,6.1,1.7,7.1c-7.2,0.6-16.6,2-22.6-1.7c-1.2,0.7-2,2.2-3.7,2.6c-4.6,2.3-8.3-9.6-2.3-9.1
	c-2.5-1.4-2.6-2.1-0.5-5.3c-2.5,0-4.6-2.1-7.1-0.2C93.4,29,90.8,25.9,93.2,23.9z"/>
<path class="st74" d="M129,29.5c-2.9-4-13.7,1.7-17.7-2c-1.9-3-24.3-3.4-13.4-5.7c4.9,4.7,40.8-0.7,33.7,4.3
	C131.2,28.2,133.7,32.3,129,29.5z"/>
<path class="st75" d="M67.6,22.7c2.3,1,5.1,0.5,7,2.7c2.5,1.8,1.5-3.7,11.1-3.1c3.8,0.9,4.1-4.3,7,1c0,1-0.4,1.8-1.4,2
	c-2.7,0.5-4.5,3.6-7.4,2.5c-4.9-1-2.1,4.2-6.9,6.1c-1.2,0.7-3.2,0.6-3.6-1.1c-0.7-5.4-6.4,0.5-6.8-4.3
	C66.3,26.4,64.9,23.7,67.6,22.7z"/>
<path class="st76" d="M129,29.5c2.8-0.2,10.3-0.2,6.9,4.1C135,31.4,123.9,30.7,129,29.5z"/>
<path class="st77" d="M86.3,26.7c2.9-2.7,10.1-4.1,5.8,1.3C90.1,27.9,86.9,29.9,86.3,26.7z"/>
<path class="st78" d="M67.6,22.7c-1.6,10.9-6.9,0.5-7.3,8.1c-2.5,6.1-3.7-7.7-0.6-9.2C63.4,20.3,65.4,18.4,67.6,22.7z"/>
<path class="st79" d="M36.9,161.3c-2.5,6.1-1.9-6.4-4.3-5.8c-2.4,0.8,1.7,5.8-2.1,5.8c-5,1.6,1.7-21.7-2.6-13.2
	c-0.5-2.8-6.8-14.4,0.1-11.1c-1.3-4.5,0.3-5.3,3-1.6c-0.6-1.7-1.7-5.8,1.4-4.2c0.8-3.1,1.6-1.9,0-5.1c5.6-9.9,5.4,14.2,7.5,17.5
	c1.3,3.6-1.3,6.5-1.5,9.8C37.1,155.8,38.9,159.8,36.9,161.3z"/>
<path class="st79" d="M42.4,166.1c-0.1-0.9,1.5-2.1-0.2-2.6c-2.2-0.9-1.9,2.4-3.6,2.3c2.2,3.2,4.7,6.3,2.8,9.9
	C46.1,180.9,42.1,168.5,42.4,166.1z"/>
<path class="st29" d="M31.2,131.8c1,1.1,2.8,8.7-0.2,6.7C27.2,136.2,27.7,122.5,31.2,131.8z"/>
<path class="st80" d="M31.2,131.8c-1.6-0.7-1.5-5.5-0.5-6.7C31.8,127.3,31,129.6,31.2,131.8z"/>
<path class="st79" d="M34.8,164.6c1.5,0.2,2.1,0.8,2.2,2C35.8,166.6,35.4,165.8,34.8,164.6z"/>
<path class="st4" d="M23.9,122.2c0-0.6,0.1-1.1,0.1-1.7C24.9,121,25.3,123.2,23.9,122.2z"/>
<path class="st80" d="M36.9,161.3c-2.3-4.4,1.1-8.6,0.5-12.9c-0.2-1.4,2.1-1.6,1.6-2.1c-1.9-4.5-0.2-10.2-2.4-14.4
	c-1.6-1.1-2-2.1-0.8-3.9c0.8-1.1-1.7-1.8-1.1-3.3c-7.3,4.4,0.9-16.3,6.2-1.9c1.6,2.9-2.6,4.4-1,7.9c-0.4,4.5,11.4,43,1.4,25.5
	C39.1,156.4,39.9,166,36.9,161.3z"/>
<path class="st81" d="M38.6,136.4c1-3.6-2.7-8.1,0.2-10.8c0.9-0.6,1.4-1.2,0.6-2.3c-8.9-8.5,4.2-14.8,4.6-24.3
	c3.1-5.8,1.7,7.5,0.7,9c-8.1,14.3,1.2,6.7,1.3,20C42.6,134,45.1,156.7,38.6,136.4z"/>
<path class="st82" d="M44.8,97.8c1.4,4.4-11.6,25.1-7.5,13.1c5.6-6,7.4-12.8,5.8-21.1C46.3,88.1,46.2,97,44.8,97.8z"/>
<path class="st83" d="M32.9,92.7c-0.2,1.8,1.3,5.1-1,5.9C28.8,97.9,29.1,93.4,32.9,92.7z"/>
<path class="st84" d="M44.2,90.4c-1.7-0.5-0.8-2.6-1.1-4c-0.6-3.9-0.2-4.5,3.2-4.9C46.9,83.9,47.1,89.8,44.2,90.4z"/>
<path class="st85" d="M46,81.3c-1.7,1.3-3.2,2.6-2.9,5.1C39.4,81,49.5,78.5,46,81.3z"/>
<path class="st80" d="M36.9,115.4c-0.4,0.6-0.8,1.1-1.2,1.6C35.1,115.8,35.9,115.5,36.9,115.4z"/>
<path class="st80" d="M33,129.6c-0.2,0.5-0.4,1.1-0.6,1.6C32.6,130.7,31.4,129.6,33,129.6z"/>
<path class="st86" d="M30.1,33.9c-0.2,6.8-1.2,10.1,6.8,7.2c3.6-3.4,4.1,3,4,5.4c-0.1,2.8-2.2,4.8-2.3,7.5
	c15.6-1.9,3.7-16.2,9.1-16.1c2-0.6,4.4,2,5.7-0.3c-3.8-2.1-9.2-11.5-11-2.8c-0.6,1-0.4,2.7-2.1,2.5C36.5,35.1,37.9,25.6,30.1,33.9z"
	/>
<path class="st87" d="M30.1,67.6c-2.3-5,1.4-14-4-17.5c3.8,4,1.1-2,4.7-1.1c2.9-0.3,2.4,2.9,3.8,4.5C39.3,58.7,32.2,63.1,30.1,67.6z
	"/>
<path class="st86" d="M30.1,67.6c-0.3-5.5,6.6-7.5,4.5-14.2c1.3,1.1,2.4,1.9,4,0.6c5.7,9.9-2.4,7.7-1,13.2c1.5,3.9-2.3,3.3-1.9,6.7
	c-5.5,2.5-2-2.6-2.2-5.1C32.8,72.7,31.3,69,30.1,67.6z"/>
<path class="st35" d="M27.2,54.5c-0.9,0.8-1.8,0.7-2.8,0.1C25.3,54.6,26.2,54.5,27.2,54.5z"/>
<path class="st85" d="M47.7,77.3c-0.6-18.1-4.9-6.3-7.5-12.4c-4.3-11.5,6.4-18.4,5.1-9.2c-0.2,0.9,0.8,2.6,1.6,1.4
	c0.5-2.1-2.5-2.4-1.4-5.7c1.2-1.6,0.4-4.6,2.6-5.4c4.1-0.5,14.8-21.5,14-8.8c-2.1,2.1-0.4,5.3-2.3,7.6c-3,3.2,1.1,8.7-3.8,10.6
	c-4.3,1-5.2,11.9-0.9,7.8c2.1-2.7-0.9-7.2,2.7-9c1.5-0.7,2.6-0.1,3.3,1.2c2.6,4.4-3.3,5.5-1.9,9.5c0.8,4.2-3.8,6.7-7.6,5.8
	C46.5,68.9,52.5,78.1,47.7,77.3z"/>
<path class="st88" d="M57.9,35.8c-0.1,5.1-7.1,10.4-10.4,12.7c0.4,1.1,2.1-0.8,2.1,0.9c0,1.4-0.9,2-2.2,2.1
	c-9.5,0.8-5.2,8.7-7.6,13.4c-1.2-0.3-1.1-0.9-0.6-1.8C38,44.6,41.4,58,46,47.2c1.2-2.2-3.6-2.8-0.9-4.8c2.1-2.4-3.6-1.3-3.1-3.5
	C45.5,32.9,53.4,40.1,57.9,35.8z"/>
<path class="st89" d="M47.7,77.3c3.2-2.5-3-9.7,4-8.1c15.6-2.9,5,11.7,6.1,20.3c-8.1,8.5-8.2-9.1-7.3-13.8c-0.6,1.4,0.3,4.1-2.9,3.8
	C47.1,78.9,47.8,78.1,47.7,77.3z"/>
<path class="st90" d="M39.1,63.1c1.1,3-1.4,5.9-0.1,9.1c0.4,1.8,0,3.7-1.6,5.1C37.1,74.6,33.5,52.7,39.1,63.1z"/>
<path class="st29" d="M47.6,78.4c0.2,0.8,0.2,2.2-1,1.7C46.6,79.4,46.8,78.8,47.6,78.4z"/>
<path class="st90" d="M31.8,70.5c1-1.5,0.2-3.3,0.9-5C38,69.7,32.5,75.9,31.8,70.5z"/>
<path class="st90" d="M32.4,73.9c1.1,0,2.2,0,3.4,0C34.6,76.3,33.5,75.6,32.4,73.9z"/>
<path class="st91" d="M61.3,37c-2.3-5.8-5,5.8-1.7-10.8c3-4.2,4.1,4.7,7.4-1.7c-0.1,6.9,5.6,6.1,2.5,9.4
	C67.9,35.7,63.2,37.9,61.3,37z"/>
<path class="st92" d="M64.2,172.6c-10.5,0.5-11.4,1.1-8-9.7c1.7-5-1.4-9.9,0.2-14.8c8.5-10.7-3.7-31.5,13.7-24.8
	c5.8,12.6-4.3,2.9-5,19.9c-2.3,9.5,3.2,6.9-1.4,16.3c-0.4,3,6,3.4,2.8,8.7C65.7,169.8,66.6,172.1,64.2,172.6z"/>
<path class="st93" d="M92.6,175c-3.2-1.2-11.3-1.5-10.6-6c0.7-2.4-1.8-4.7-3.2-1.9c-6.2,11.2-8.8-15.2,4.2-7.6
	C88.4,160.3,94.3,169.8,92.6,175z"/>
<path class="st94" d="M57.4,154c3.1,4.3-5.2,18.4,0.5,18.8c-3.3,0.6-6.9,1.5-10,3.6c-2.8-9.5,3.6-5,3.4-15.9c-1-7.9,5.2-8.2,3.9-0.6
	C55.9,158.1,54.7,155.3,57.4,154z"/>
<path class="st95" d="M75.6,169.9c1.7-4.1,5.6-10.3,7.9-3.2c-1.3,4.2,1.9,5,3.9,7.2C84.5,172.9,63.3,174.1,75.6,169.9z"/>
<path class="st96" d="M92.6,175c-0.8-4.6-10.3-17.4,0.7-11.7c2.7,1.7,2.9,6.5,6.5,6.4C104.5,172.4,94.5,174.1,92.6,175z"/>
<path class="st97" d="M72.1,172.2c-1.2,1.4-5.6,0-7.9,0.4c0.2-2.1,1.7-3.3,2.7-5.1c0.6-2.1,3.8-1.7,3.7,0.4
	C70,169.8,71.3,170.9,72.1,172.2z"/>
<path class="st98" d="M101.1,171.7c-9.3-6.7,10.1-3.5,4.5,1.8C103.4,175.1,103.1,171.4,101.1,171.7z"/>
<path class="st1" d="M103.3,173.3c3.9-0.6,3.7,3.5,1.8,5.7C104.9,177,105,174.8,103.3,173.3z"/>
<path class="st99" d="M106.8,172.2c-2.5-1.9-5.1-3.4-8.1-4.3c-4.3-4.7,3.5-15.6,3.3-6.1c5.2-9.5-5.3,0.6-3.6-8.7
	C99,125.4,111.6,164.3,106.8,172.2z"/>
<path class="st100" d="M52.8,154.6c-0.2,6,1.4,13.8-5.6,16.4c-1.9-3.2,3.8-7.5,2.8-12.3c0.3-2.2-2.9-3.3-3.4-0.8
	c-6.2,5.3-5.5-23.4-2.6-28.6c1.8-2.2-0.7-10.4,4.1-7.8c3.4,3.2,6,1,6.1,4.5C54,135.8,59.7,146,52.8,154.6z"/>
<path class="st101" d="M45.5,157.4c4.5-5,2.5,8.2,0.2,3.4C45.6,159.7,45.6,158.6,45.5,157.4z"/>
<path class="st41" d="M86.3,179.6c-2.9,1.2-5.6,1.3-7.9-1.1C81.2,177.6,83.8,178.6,86.3,179.6z"/>
<path class="st102" d="M168.8,41.2c0.1,3.2,0.9,6.5,1.6,9.6c0.6,3.7,6,2.3,4.4-1.2c-3.1-5.2,1-11.6-4.5-15.4
	C170.7,38.2,168,35.7,168.8,41.2z"/>
<path class="st103" d="M171,46.5c1,8.2,3.3,4.3,7.9,9.7c1,2.9-2,3.8-3.8,1.9c-3.1-1-3.3-0.8-3.4,2.4c0.2,6.1-7.2,2.5-5.2-2.8
	C167.3,49.5,163.5,50.7,171,46.5z"/>
<path class="st104" d="M178.4,58.5c-0.4-4.8,6.9-6,5.2-0.3c-1.2,1.4-0.3,2.1,0,3.2C181,63.2,179.2,60.9,178.4,58.5z"/>
<path class="st105" d="M170.4,36.4c-0.6-5.5-18.7-21.2-13.9-8.7c2.7,4.3-5.3,6.1-0.7,12.2C167,38.2,169.7,47.4,170.4,36.4z"/>
<path class="st106" d="M154.5,20.5c-3.6-0.1-11.7-1-12.9,3.1c3.2,3.7-2.4,4.7-1.6,7.9c0.5,0.6,1.1,0.8,1.8,0.7
	c3.4-0.9,4.7,4.5,8,3.6c3.5-1.5,6.5-5.5,6-9.8C154.8,22.7,158.5,22.6,154.5,20.5z"/>
<path class="st107" d="M110.2,125.1c-4-0.9-7.8-3.1-9,2.4c-4,8.1-4.4-11.9-8.6,12.3c-6.1,0.6-7.4-1.7-6,6.8
	c-1.6,2.8,1.5,4.3-1.5,6.9c-1.2,0.9-2.4-0.7-2.4-1.8c-7.5-16.7,2.8-24.8-4.4-24.1c-5.3-4.5,13.1-22.2,15.2-13.5
	c-4.2,4.1-6.8,9.7-6.5,15.6c3.8-1.6,3.2-17.6,8.6-14.6c5.9,8.6,15.6,3.4,18.3,11.4C112.1,127.3,111.7,124.9,110.2,125.1z"/>
<path class="st108" d="M97.7,132.4c3.1-1.2,9-8.8,11.3-3.2c0.3,1.8,0.3,3.7-2.3,3.9C103.8,133.4,99.4,135.9,97.7,132.4z"/>
<path class="st109" d="M100.1,145.4c0.2,2.9-3.9,15-5,6.4c-0.9-4.3,1.1-8.2-0.6-12.3c-1.1-4.2,3.8-8.4,3.6-2.7
	C98,141.6,102,139.7,100.1,145.4z"/>
<path class="st110" d="M92.6,132.4c1.2-3.8,2.1-7.7,4.7-11c1.9,2.6-0.7,6.2,2.5,8.2C96.7,129.2,95.7,134.4,92.6,132.4z"/>
<path class="st111" d="M92.6,132.4c5.6-2.8,5.1,5.1,2.8,7.3C89.3,145.8,91,134.9,92.6,132.4z"/>
<path class="st112" d="M99.4,140.3c-4.3-0.2-2.4-5.3-1.7-7.9C100.5,133,99.9,138.1,99.4,140.3z"/>
<path class="st113" d="M100.1,145.4c-1.1-3.8,1.8-8.9,2.1-2.2C100.9,143.4,100.6,144.5,100.1,145.4z"/>
<path class="st58" d="M110.2,125.1c3.1,0.3,4.5,2.1,4,5.1C111.9,129.2,112.6,125.9,110.2,125.1z"/>
<path class="st109" d="M99.9,138.1c-0.7-1.7-2-5.8,1.2-4C99.4,135.1,100.2,136.7,99.9,138.1z"/>
<path class="st114" d="M114.1,126.8c-4.9-6.1-14.6-2.9-18.7-10.9c-1.5-2.5-4.1-4-6.8-5.1c3.9-3.3,6.5,3.5,9.3,5.2
	c6.9,5.3,13.7,3.2,20.2,11.8C116.4,128.2,115.6,127.3,114.1,126.8z"/>
<path class="st115" d="M183.4,62c6.1,14.6-2.6,21.9,4,35.2c-0.6,2.6,0.1,5.6-1.7,8c-4.7,4.6-8.1-5.2-8.9-8.7
	c-1.3-4.8,1.8-9.3,0.7-13.9c-0.7-3.2,1.5-6.1,2-9.1C181.4,71,180.6,61.5,183.4,62z"/>
<path class="st116" d="M178.4,88.7c-1.9,4.9,1.3,17.5,7.4,16.5c5.5,13.8-6.1,8.3-5.2,13.8c2.3,4.3-3.4,7.7-3.8,2.4
	c-0.7-8.9-8.4,0.3-9.6-3.5c-1-3.3-2.8-14.9,3.8-11C176.6,107,171.3,88,178.4,88.7z"/>
<path class="st117" d="M185.8,114.2c-13.9,0.6-10.7,4.4-6.9,11.9C180,172.7,189.2,138.9,185.8,114.2z"/>
<path class="st118" d="M183.4,62c-1,3.1-0.3,15-5.9,10.9c-0.6-1.2-0.6-2.6-0.3-3.7c1.1-2.8-2.1-3.8-1.4-6.2
	C176.4,61.2,183.4,59.8,183.4,62z"/>
<path class="st119" d="M181.2,147.1c-3.4-10.4-7.6,7.9-10.9,10.2c-1.6,2.6,0.8,5.6-0.4,8.5c2.2-2.3,4.3-4.8,6.3-7.4
	c0-0.6,0.7-3.1,1.3-1.8C179.4,153.7,182.9,151,181.2,147.1z"/>
<path class="st120" d="M177.8,154.5c-3.2-6.2-2,3.3-2.9,5.6C175.7,158.4,179.3,156.3,177.8,154.5z"/>
<path class="st121" d="M171,159.1c-1.8-0.6-1.6,1.9-2.7,1.8c-2.6-0.2-4.6,2-5.3,3.9c3.8,4.5-0.2,3.4,1.3,6.4
	C167.8,167.8,173.1,164.7,171,159.1z"/>
<path class="st122" d="M165.3,167.1c-2.1-3-5.6,4-2.3,5.3C164.3,170.3,170.6,167.5,165.3,167.1z"/>
<path class="st123" d="M169.1,164c2.1-3,9-25.2,0.4-24.3c-8,1.8-1.8-9.5-8.6-5.4c-2.6,3.8-4.3-6.7-2.9-7.8c1.6-2.5,2.6-5.5,4.9-7.5
	c2.6-3.2-3.8-10-4.5-3.9c0.6,5.9-7.8-0.2-5.9,6.6c3,4.6-0.4,13.5,2.1,19c2.6,5.2-4.7,2.9-5.2,6.9c-3.2,8.8-13.8,14.5-11.6,25.1
	c6.3,9.4,5.5-19.6,11,8.4c8.5,0.6,2.1-13.2,4.9-18.3c0.4,12,7.3-0.2,6.8-5.5c0-4.6,1.2-6.7,4.8-7.9c0.8,3.9-6,11.9-1.8,14.6
	C165.4,163.7,167,160.8,169.1,164z"/>
<path class="st124" d="M166.9,147c-2.4-1.6-3.2,1.8-4.9,2.6c-4.7,1.8-1.6,15.9-6.9,17.4c1.2-2.2-1.3-4.1,0-6.3
	c1.4-2.3-2-2.8-2.1-0.7c-1,4.8-4.4,25.4,3.2,17.7c-0.3-1.8-1.1-4.4,2-5.1c2.4-4.8,6-5.1,5.5-10.6C163.5,158.6,169.5,147.9,166.9,147
	z"/>
<path class="st125" d="M148.2,172.8c0.5,5.5,3.6,9.6-4.5,8.5c-3.7-2.4-1.4-14.7,2.1-6.8C144.6,172.7,147.1,170.3,148.2,172.8z"/>
<path class="st126" d="M158.2,172.6c-3.4-5.4-4.6,3.3-3.4,6.2C157.6,177,159.1,176,158.2,172.6z"/>
<path class="st127" d="M162,166.3c-4.8,1-4.3,6.3-3.8,10C161.3,174.4,165.9,168.8,162,166.3z"/>
<path class="st124" d="M157.9,172.2c-0.6,1.5-0.5,3.1-0.3,4.6C159.7,175.9,158.4,173.8,157.9,172.2z"/>
<path class="st128" d="M154.5,125.6c1,3.7-0.8,6.6-0.7,10.4c-0.4,4-6.3,3.7-5.9-0.4c-0.8-3.7,3-23.1-4.4-17.4
	c-11.6,6.9,5-19.7-2.7-16.2c-3.4,3.2-8.6-10.9-9.1-13.9c-1.8-4.8-1.3-11.6-7.2-13.3c-1.5-3.7,4.5-10.1,6.9-6
	c1.6,6.2,1,12.8,2.6,19.3c0.2,2.5,4.1,3.1,4,0.1c2.2-4.2,2-2.6,6-3c2.6-1,3.3-0.6,3.6,2.2c3,5.4-0.3,12.2,3.3,15
	c2.8,2.1,1.2,7.7,2.5,11C153.2,118.1,150,122.1,154.5,125.6z"/>
<path class="st129" d="M125.5,79c-3.9,5.9-0.9-7.8-15.4,5c-2.8-0.2-4.1,4.6-6.2,3.5c-0.5-10.5,16.4-15.1,6.8-25.3
	c-2.8-0.9-2.6-4.2,1.4-3.9c-5.9-2.9-5.4,2.9-10.1,1.1c-8.3,0-4.6,0.4-9.4-6.7c-7.2-9.6,19.2-13.9,13.9-5c-3,3-2.9,4.8,1.5,3.3
	c3,1.8,7.1,1.2,9.4,4.5c1.7,2.6,3.8,1.3,6,4.4c0.8,3.8,6.9,9.7-0.9,9.1C117.5,71,130.6,75,125.5,79z"/>
<path class="st130" d="M113,74.4c-4.4,3.2-2.3-1.1-1.8-3.5c0.7-4.8-3.1-3.6-6.2-4.5c-8.7-4.1-14.1,5.2-21.2,7.1
	c-2.1-8.4,11.6-6.8,12.6-15.1c2.3-0.2,4.5-1.9,7.1-0.4c0.7,0.4,2.2-0.1,2.8-0.9c0.8-1.2-1.2-1.5-1.1-3.1c3.9,0.5,6.6,3.3,10.1,5
	c-1.9,1.2-3.9-0.3-5.5,0.9c1.7,1.3,3.8,1.4,5.9,2.1C108.2,65.1,119.2,66.7,113,74.4z"/>
<path class="st131" d="M104.5,88c0.2-3.4,1.1-4.3,5.2-5c2.9,2.9-2.5,6.6,5,10.5c4.7,4.9,13.2,8.7,3,13.5c-8,1.9-4.4-11.8-10.7-14.9
	C105.7,91.1,105.1,89.5,104.5,88z"/>
<path class="st132" d="M63.1,108.5c3.9,9.3,7.3-7.9,10.5-5c9.2,9.3-14.3,15-7.8,17.2c3.2-1.1,6.6,0.1,9.8-0.9
	c0,4.1-8.5,2.4-11.4,2.4c-1.1,0-2.5,1.3-3.3-0.2C58.4,120,59,108.6,63.1,108.5z"/>
<path class="st133" d="M71.2,83.9c19.9,37.7,4.1,6.7-1.7,14.5c-0.1,1.2,1.2,4.8-2.2,1.6c-0.4-0.4-1-0.3-1.1,0.3
	c-12.3,9.1-9-15.3,6.9-6.5C71.4,91.2,67.8,86.3,71.2,83.9z"/>
<path class="st134" d="M138.1,165.4c-0.4-9.7,21-49.1-4-37C158.8,103.9,146.9,155.3,138.1,165.4z"/>
<path class="st135" d="M148.2,172.8c-3.8-1.2-0.8,3.2-2.3,5.2c-0.6-1.8-0.2-4.7-2.4-4.8c-2.1,1.2,2.9,9.2-2.6,9.2
	c-3.4-1.5,1.2-7.7-3.8-6.9c-4.2,0.5,1.4-10.8,1.6-5c0.1,4,3.4,4.6,2.7,0.2C144.1,162.7,147.9,165.7,148.2,172.8z"/>
<path class="st136" d="M148.3,126.8c0-11.2-17.3,6-15.5,0.6c3.7-4.4,3.6-10.4,6-15.4c3.3-3.5-6.5-12.8-2.3-13.1
	c5.1,5.9,6.6,10.9,3,18.4C137.4,121.8,153.3,117.1,148.3,126.8z"/>
<path class="st137" d="M120.9,99c-22.7-8.7-2.8-25.2-1-14.4C112.1,87.1,117.2,95,120.9,99z"/>
<path class="st138" d="M140.3,108.5c0.4-3.2-11.7-17.9-3.9-12.4c3.5,8.8,1.8,4.8,7.3,1.7c1.2,1.2,1.4,6.7-0.1,8.2
	c-1,1.3,0.8,3.7-1.5,4.8C140.6,110.7,139.8,110.1,140.3,108.5z"/>
<path class="st139" d="M105.1,66.5c9.3-0.8,8.3,2.5,6.1,9.7c-2.1,4.2-8,5.8-7.3,11.4C100.4,80.7,118.3,69.7,105.1,66.5z"/>
<path class="st140" d="M120.3,113.9c3.4-2.3,6.1-4.3,9-6.1c4.6-1.3,0.5,7.3-2,7.5c-0.4,0.1-0.9,0.2-1-0.2
	C125.2,110.1,123.1,114.9,120.3,113.9z"/>
<path class="st130" d="M119.9,84.6c-7.5-7.5-11.7,4.3-6.3,10.3c-6.5-3.7-5.5-14.5,2.2-15C119.2,78.3,126.6,84.3,119.9,84.6z"/>
<path class="st141" d="M94.9,94.3c3.2,0.2,0.3,5.6-1.9,4.2c-3.2-1.9-2.7,2.6-4.9,1.9c-0.7-0.5-0.3-1.2,0-1.8
	c0.3-5.3,9.1-5.9,5.2-3.3C93.7,94.9,94.3,94.7,94.9,94.3z"/>
<path class="st142" d="M65.3,121.6c6.5,1.1,12.5-3.1,17.6-3.9c-3.2,3.9-9.7,10.4-14.3,5.5C67.6,122.7,64.2,123.8,65.3,121.6z"/>
<path class="st143" d="M82.9,117.7c-13.6,7.3,2.7-3.8,5.7-6.8c3.3,0.3,5.5,2.2,6.8,5.1C88.2,109.1,89.3,113.4,82.9,117.7z"/>
<path class="st144" d="M78.8,75.7c-3.1,2.1-7.6,4.6-7.9,8.4c-2.3-0.7-2.8-3.7-0.9-5.5c2.6-1.4,4-4.2,6.5-5.8
	C78.9,70.3,82.3,74.8,78.8,75.7z"/>
<path class="st145" d="M78.8,75.7c6.5-5.5,3.2,8.9,0.5,9c-0.7-2.2,2.4-5.4-1.4-1.9C78.2,80.4,80.1,78.2,78.8,75.7z"/>
<path class="st146" d="M63.1,108.5c-5.1,8.3-13.2-7.7-4.4-4.3C61.1,106.1,63.3,105.1,63.1,108.5z"/>
<path class="st147" d="M125.5,79c-1.1-9.3,4.6-3.7,4.6,2.2C128.4,79.9,128.2,76.8,125.5,79z"/>
<path class="st133" d="M60.8,105.6c-5.4-0.1-4.7-7.2,1.7-3.3C62.1,103.5,59.7,103.6,60.8,105.6z"/>
<path class="st148" d="M84.1,73.2c1.2-0.3,2.1-1.2,3.4-1.1C82.8,79.7,79.3,72.5,84.1,73.2z"/>
<path class="st149" d="M138.6,168.8c-3,2.5,1.2-9.6,1.4-8.3C140.9,162.1,138.6,166.4,138.6,168.8z"/>
<path class="st147" d="M130.1,81.3c0.3,2.3,1.9,4.4,1.6,6.8C130.7,85.9,129.6,83.8,130.1,81.3z"/>
<path class="st136" d="M134.1,94.9c0,4.7-1.2-0.8-1.2-2.8C134,92.7,134,93.8,134.1,94.9z"/>
<path class="st130" d="M123.9,80.8c0,0.9-0.4,1.6-1.1,2.2C121.1,82.4,123,79.4,123.9,80.8z"/>
<path class="st150" d="M139.7,177.9c2.3,1.9,0.8,7-1.4,3.4C138.3,180.2,137.9,176.2,139.7,177.9z"/>
<path class="st23" d="M148.3,20c-1.3,2.6-8.3,2-4.7,5.9c1.3,2.2-3.1,3.3-3.3,5.4c0.4,0.6,0.2,1-0.5,1.2c-5.7,3.5-2.7-0.5-5.8-2.9
	c2.3-0.3,4.3,2.3,5.5-0.9c0.9-1.9,2.1-3.3,1.4-5.7C140.7,19.9,146.1,20.1,148.3,20z"/>
<path class="st151" d="M101.1,43.7c-5.6-1.6-24.4,10.1-22.5,1.3c1.3-3-1.4-6.1,0.5-8.6C85.5,30,107.6,30.3,101.1,43.7z"/>
<path class="st152" d="M101.6,35.3C95,34,85.1,32.5,79.6,37c-0.7-1.4,1.7-6.9,3.7-6.8c5.4-2.9,8.6,5.6,12.7,0.2
	c0-1.7-0.9-7.2,2.6-4.6c2.1,1.5,7.5,0.3,8.3,3.5c-0.3,1.9-3.9-0.1-4,2.1c0.3,2.3,4.4-0.2,4.4,2.1C106.7,35.7,103.1,34,101.6,35.3z"
	/>
<path class="st153" d="M133.2,37.9c4.2,7.3,4.1,1.8,5.9-2.1c1.5-0.3,2.4,0.8,2.1,1.8C141.4,90.5,124.2,42.9,133.2,37.9z"/>
<path class="st152" d="M101.1,43.7c-0.4-2.9,0-9.8,1.6-3.6c0.6,3.1,6.2,1.2,4.3-1.3c-1.4-2.3,3.1-3.3,3.6-1.2
	c1.9,5.7,14.2,4.1,19,3.2c4.7-1-0.1,3-2,3c-5.2,1.4-12.3,0.7-16.4,0c2,0.3-0.2,3.2-2,2.6C106.7,45,103.9,44.8,101.1,43.7z"/>
<path class="st154" d="M139.8,45.5c-7.3-25.9,13.1-16.5,5.8-4.1C143.7,42.8,143,48.2,139.8,45.5z"/>
<path class="st155" d="M109.6,44.9c3.5-0.6-0.7-1.2-1.7-1.9c8.6,0.1,17.5,1.2,25.5-2.7C134.1,49,114.1,50.9,109.6,44.9z"/>
<path class="st152" d="M134,40.4c-2.7-9-16.3-2.4-23.4-5.7c4.7-2,8.6,0.6,13-1.7C127.7,30.1,140.3,36.6,134,40.4z"/>
<path class="st77" d="M96,27.3c8.4,3.3-10.7,8.2-5,0.5C92.7,27.9,94.3,27.7,96,27.3z"/>
<path class="st156" d="M94.7,27.4c0,1.2,0.4,3-1.3,3.1C90.7,30.5,91.7,25.1,94.7,27.4z"/>
<path class="st157" d="M83.4,31.2c-7.8,1.3-0.8,10.2-3.2,13.8c-1.1,1.2,0.3,2.5,1,3.7c1.1-0.6,1.9-0.1,2.2,0.9
	c0.8,3.9,2.4,7.9,0.8,12c-1.2,3.1,2.6,6.3-0.1,9.1c-1,2.2-0.7,5.7-4.6,4.2c-3.9-12.4,3.2-29-11.3-37.2c-3.3-0.8-2.5,4.5-5.8,3.9
	c-6.6-8.1,9.8-5.2,6.3-11.5c1.5-3.6,3.6,0.3,6.1-2.4c1.2,2.5-1.4,4.4-0.2,4.9c7,0.5,3.2-6,5.3-5.9C83.1,24.2,85.3,28.3,83.4,31.2z"
	/>
<path class="st158" d="M83.4,31.2c-3.5-2.3,0-5.3,2.8-4.6c1.8,1.4,4-0.8,5.8,0.7c-3.6,4.9,2.6,4.1,5.6,2.8
	C92.8,36.7,89.7,30,83.4,31.2z"/>
<path class="st91" d="M59.6,26.2C57.9,25.6,59.6,24.2,59.6,26.2L59.6,26.2z"/>
<path class="st100" d="M38.6,136.4c0.8,0.5,1.1,1.3,1.1,2.2C38.9,138.1,38.6,137.3,38.6,136.4z"/>
<path class="st159" d="M55.1,141.5c-3.2-7.1,1.8-17.1-8.3-19c-1-0.5-0.6,2.2-1.9,2.6c-7.2-7.7,2.2-20.4,3.3-6
	c10.9,6.5,11.2,5,8.5,17.3C56.8,138.1,57.4,140.3,55.1,141.5z"/>
<path class="st160" d="M47.4,79c3.2-2.2,2-5.3,2.9-8.2c2,0.4,0.3,8.1,0.8,10.4c-4.9,2.3,1,32.7-8,26.7C47.9,99,37.5,90,47.4,79z"/>
<path class="st161" d="M44.9,113.6c-1.5,1.5-0.5,3.5-2.9,5.7C34.4,116.2,46.8,101.6,44.9,113.6z"/>
<path class="st81" d="M44.3,92.6c1.6,1.1,1.2,2.5,0.5,3.9C43.9,95.4,44.7,93.9,44.3,92.6z"/>
<path class="st84" d="M47.7,79.6c0,1.1-0.7,1.6-1.7,1.7C46.3,80.4,46.8,79.9,47.7,79.6z"/>
<path class="st162" d="M62.4,40.9c10.2-14.6,5.3,7.1,6,13.1c0.4,5.3-5.1-0.8-4.6,4.6c0,2.4-0.7,4.2-3,5.3c-2.9,1.6,0.9,5.8-2.4,7.7
	c-3.9-9.1,6.3-15.1-1.2-17C56.5,49.8,56.4,42.2,62.4,40.9z"/>
<path class="st163" d="M57.4,54.6c2.2,9.3-6.1,17.5-6.5,8C51.4,56.9,50.8,52.2,57.4,54.6z"/>
<path class="st164" d="M44.9,51.8c1.7-0.4,1.7,1.9,3.1,2.7c1.9,1.1,1.3,4.6-0.5,5.5C42.9,59.9,42.6,55,44.9,51.8z"/>
<path class="st162" d="M61.3,37c1.8,0.6,0.6,3.9-1.2,4.5C60.5,40,59,38,61.3,37z"/>
<path class="st165" d="M58.5,71.6c-0.9-5,1.7-14.6,5.3-5.2c-0.2,5.5,5.1,3,4.5,7.8c-1.9,7.4,3.5,10-3.6,12.7
	c-3.9,2.8-9.4-0.8-5.6-5.2C61.4,78.4,58.2,75.3,58.5,71.6z"/>
<path class="st166" d="M47.1,90.4c-0.6-4.5,1.7-8,3.2-11.9c1,3.7,4.2,12.9,0.6,15.5C48.5,94,46.9,93.1,47.1,90.4z"/>
<path class="st167" d="M59.1,76.2c6.9,4.5-3,6.6,1.7,11.4c2.7,2.4-2.4,3-3.5,1.6c-2.4-3.4,0.5-5.3-0.5-9.4
	C56.4,75.9,59.4,81.5,59.1,76.2z"/>
<path class="st168" d="M51,93.2c-0.7-1.7,1.5-2.4,1.3-4c1.7,2.2,3.4,0.9,5-0.1C63.9,92.7,52.2,98.6,51,93.2z"/>
<path class="st169" d="M69.4,123.8c3.7,0.3,6.8-1.9,10.1-2.8c-2.2,9,2.7,19.2,0,27.9c-6.1,0.4-3.3-7.3-10.2-0.8
	c-5-1.2,1.1-17.2,4.4-19.5C70.1,132.1,70.5,125.9,69.4,123.8z"/>
<path class="st170" d="M70.4,127.9c2.7,3.5,1.6-1.3,3.7-2.1c4.2-2.6-2,6.3-2.3,8.1c-7.2,16,5.7,22.1-1.9,25.5
	C60.4,150.6,65,136.9,70.4,127.9z"/>
<path class="st171" d="M52.8,154.6c-0.2-4.4,3.2-8,2.9-12.5c0.9-2.4-1.2-9.3,2.7-8.9c3.6-2.5-2.6,38.5-4.5,29.6
	C53.3,159.3,55.7,158,52.8,154.6z"/>
<path class="st172" d="M57.4,149.4c-0.6-2.9,3.3-15.3,0.4-15.2c-2.9,1-0.7,5.7-2.2,7.9c-1.3-5.6,1.7-12,1.2-17.6
	C64.6,116.4,60.7,146.6,57.4,149.4z"/>
<path class="st173" d="M65.8,152.3c0.2-0.6,0.6-1.9,1.1-0.4c1,4,8.7,12.6,2.3,14.5c-6.6,7.6-2.5,1.3-4.6-4
	C61.8,159.4,65.8,155.8,65.8,152.3z"/>
<path class="st174" d="M57.4,109.7c12.5-1.5-7,11.3,11.2,13.5C58.8,125.8,54.7,119.2,57.4,109.7z"/>
<path class="st175" d="M69.3,131.1c-1.7,1.4-5.3,18.2-5.1,12.1c0.3-3.3,1.3-6.4,1.3-9.7C65.4,130.9,68.1,132.1,69.3,131.1z"/>
<path class="st176" d="M64.2,143.2c0.4,3.7,3.7,11,0.7,13.7C64.5,152.6,62.6,147.6,64.2,143.2z"/>
<path class="st177" d="M64.7,155.7c1.1,2.4-0.9,11.5-2.2,5.2C62.8,159.1,62.6,156.9,64.7,155.7z"/>
<path class="st178" d="M58,119.4c2.3,0.7,2.3,3.6,4.3,4.5C59.5,125.5,50.5,124.9,58,119.4z"/>
<path class="st179" d="M69.8,160.3c-1.1-2.6,3.1-2.1,0.7-6.5c-1.1-3.1-2.8-10.2,2.6-9.8c1.2,0.2,1.2-1.7,2.9-3.1
	c-2.4,6.4,4.5,6.6,6,10.4c1.9,5,1,6.9,7,6.1c3.9,4.5,3.5-1.7,6.8-1c1.8,0.1,3.4,14.2,0.7,13c-3.9-4.9-4-5.2-9.7-7.2
	c-5.5-0.9-8.6-8.5-13-1.4C71.7,163.3,71.7,160.5,69.8,160.3z"/>
<path class="st180" d="M72.1,161.4c0.9-1.8-0.1-5,2.9-3.6c-0.3-10.4,7.6,3.4,11.8,4.2c-1.5,0.3-2.7,0.7-4-1.1
	c-2.5-2.9-9.6-0.6-7.6,3.7C77.2,178,70.8,165.3,72.1,161.4z"/>
<path class="st181" d="M72.1,161.4c1.2,2.1,6.6,12.2,0.6,10.3c-1.9,0.1-2.3-1.3-2.4-2.7c0.3-1.3-1.4-2.5-0.4-3.6
	C71.9,163.8,67.9,156.9,72.1,161.4z"/>
<path class="st173" d="M69.9,166.5c5,7-0.6,8-0.6,0C69.5,166.1,69.7,166.1,69.9,166.5z"/>
<path class="st182" d="M96.5,169.3c0.8-7.3-3.4-12.5,1.6-19.1c2.8-1.9,0.5,5.5,1.9,6.7c0.4,0.5,1,1,0.4,1.7c-3.4,3.3-0.3,8-1.1,12
	C97.3,172.7,96.9,171.1,96.5,169.3z"/>
<path class="st183" d="M100.5,158.5c-0.3-6.6,7.8-4.9,3.8,2c-2.4,1.4,0.4,4.5-1.7,5.4C99.7,165,102.2,160.6,100.5,158.5z"/>
<path class="st184" d="M156.8,39.3c2.8,0.5,6.1-4.5,7.7-1.5c3.1,4.8,6.2,1,6.5,8.8c0.8,4.6-5.5,2.7-3.4,5.2
	c-0.8,19.6-10.5,4.6-5.7,1.3C167,40.1,154.5,46,156.8,39.3z"/>
<path class="st185" d="M163.6,60.8c4.2-1.8,0.5-7.4,4-9.1c0.7,12.3-3.2,7.5,6.9,13.6c1.2,2.4-2.2,3.4-1.5,5.9c-2.8,2.4-4,3-0.7,5.6
	c8.6,7.8-3.6,7.7-0.3,18c1.8-2.4,0.3-5.7,2.9-7.9c2.6-8.5,4.9-4.7,3.5,1.7c-6.2,6.4-1,13.3-6.1,22.3c-2.2,2.7-1.9-7.3-4.7-2.9
	c-3-2.1,0.4-5.5-5.7-7.1c-6.5,15.1-3.2-24.9-4-28.6C153.6,68.2,158.1,58.8,163.6,60.8z"/>
<path class="st186" d="M179.6,62c-12.3,10.2-13.4-11.1-3.5-5.1C175,60.1,179.9,59.3,179.6,62z"/>
<path class="st187" d="M179.6,62c-2.4,0.1-5.7-2.9-3.5-5.1C177,59.7,183.8,57.3,179.6,62z"/>
<path class="st186" d="M169.8,63.1c-1.9,0.5-2.3-2.2-0.7-2.2C170.2,61.1,169.7,62.3,169.8,63.1z"/>
<path class="st188" d="M156.8,39.3c2.9,6.4-10.5-0.7-5,11.4c0.1,1.5-1.3,2.1-1.9,3.2c-2.5,2.2-4.5-0.6-6.9-1
	c-3.5-2.4-0.4-5.8-0.3-8.6C144.5,40,151.7,35.4,156.8,39.3z"/>
<path class="st189" d="M156.2,39.2c-6.9-0.6-4-1.1-5.8-6.3c2-1.9,4.7-3.2,3.4-6.9c-0.3-1,1-2.7,1.5-4.1c0.2-0.7,0.9,0,1.3,0.3
	c0.2,1.9-0.4,4,2.4,5.1C161.7,30,153.7,34.2,156.2,39.2z"/>
<path class="st190" d="M148.8,39.2c1.2,2.9-3.4,5.2-4,1.7c1.5-2.5,0-6.2,2.8-8.1C153.7,32.1,149.6,36.3,148.8,39.2z"/>
<path class="st191" d="M85.8,158.5c-10.2,0.8-10.8-46-3.1-31.7c2.2,4-5.4,8.5,0.5,11.3C76.2,141.1,88.4,153.6,85.8,158.5z"/>
<path class="st192" d="M93.1,114.2c1.7,2.3,0.1,5.8-1.6,7.9c-2.2,2.3,0.7,6.7-2.5,8.1C84.7,143.9,83.5,113.7,93.1,114.2z"/>
<path class="st193" d="M85.8,158.5c-2.9-7.5,1.7-5,0-7.9C86.2,121.1,103.4,150.4,85.8,158.5z"/>
<path class="st194" d="M88,139.2c0,2.5,2,7.5-2.2,7.4C84,144.3,83.1,134.7,88,139.2z"/>
<path class="st179" d="M85.7,150.6c2.2-1.6,2.1,1,2.4,1.7C89.4,153.8,82.2,154.8,85.7,150.6z"/>
<path class="st143" d="M95.4,115.9c0.6,0.4,1,0.9,1.2,1.6C95.7,117.4,95.5,116.7,95.4,115.9z"/>
<path class="st179" d="M89.2,155.1c3.4-8.2,5.8-13.1,6.8-0.6C94.8,157,90,159.4,89.2,155.1z"/>
<path class="st195" d="M96.5,148.5c-1.7-0.5-3.3-0.1-4.5,0.4C91.1,134,100.7,141.1,96.5,148.5z"/>
<path class="st196" d="M95.5,151.7c-3.9-2.5,1.9-5.8,0.3,0.4C95.7,152,95.6,151.9,95.5,151.7z"/>
<path class="st182" d="M95.5,151.7c1-0.3,0.3,1.7,0.5,2.4C95,153.5,95.3,152.6,95.5,151.7z"/>
<path class="st197" d="M172.7,71.1c-3-1.2-1.9-4.1,1.2-3.5c2.2,0.8,0.8,3.6,2.2,5.1c0.8,3.2,2.4,6.3,2.3,9.7c-1.8-0.1-2.4,3.9-4,1.1
	C175,80.1,168.2,77.5,172.7,71.1z"/>
<path class="st198" d="M178.3,80.8c-3.2-3-5.6-10.4,1.7-7.4C178.8,75.7,179.6,78.3,178.3,80.8z"/>
<path class="st199" d="M179.5,76.7c-2-1.4-1.4-2.5,0.5-3.3C180.2,74.5,180.1,75.7,179.5,76.7z"/>
<path class="st200" d="M171.6,158c4.9-31.2-8.7-7.6-8.3-20.5c-0.7-3.9,3.5-2.8,3-5.5c0.1-5.8,5.7-7.3,3-14.4c1.5-4,9.1-2.2,7.7,2.7
	c-0.6,1.9-0.2,3.7,0.9,5.2c2.5,4.7-0.7,10.2,2.6,15c2.5,5-2.8,3.3-3.6,7.1C175.2,151.1,174.3,155,171.6,158z"/>
<path class="st201" d="M160.2,104c1.1-1.9-0.9-6.7,0.8-7.2c1.7,0.5,0.8,4.3,3.8,3.5c4.2-0.4,2.5,5.1,2.9,7.7
	c-1.2,5.1,1.8,9.8,1.8,14.2c-3.3,3.3,1,9.2-6.8,6.1c-2-3-0.4-6.3-0.8-9.4c0.8-2.8-1.9-5.1-0.6-8C162.4,108.4,159.7,106.1,160.2,104z
	"/>
<path class="st202" d="M179.5,144.9c1.5-3.9-4.2-7-2-15.4c-0.1-5.2-4.3-2.6-0.8-12.4C179.3,117.3,184.9,153.6,179.5,144.9z"/>
<path class="st203" d="M168.2,122.2c0-6.7,3.3-4.2,2.7,0.8c-0.1,1.4-1.2,2.8,0.1,4.2c0.4,1.3-2,1.7-1.8,0.1
	C167,125.9,168.2,123.9,168.2,122.2z"/>
<path class="st204" d="M178.4,72.8c-3,6.6-4.8-6.8-1.6-8C178.8,61.9,178.3,71.7,178.4,72.8z"/>
<path class="st197" d="M176.7,64.8c-0.6,3.5-4.7-0.2-5.7-1.7C173,63.7,177.3,62,176.7,64.8z"/>
<path class="st205" d="M178.3,155.1c-1.4,0.4-2.6,1.4-1.9,3C176.9,157.2,178.6,155.9,178.3,155.1z"/>
<path class="st123" d="M163,167.7c-1.2-1.1-1.1-2.3,0.5-2.9C166,165.3,165.4,167.8,163,167.7z"/>
<path class="st206" d="M167.5,167.6c-1,1.1-3.8,1.7-2.2-0.5C166,164.5,168.2,164.9,167.5,167.6z"/>
<path class="st207" d="M160.2,104c0.7,8.8-7.7,13.4-6.2,17.6c0.8,1.3,1.9,4.7-0.8,3.6c-7,1.6,1.4-11.5-0.8-19.2
	c-5.7-14.4,0.2-14-9.9-26.6c-0.2,3.2-1.1,4-4.3,3.6c-3-0.2-1.9-2.2-2.4-5.4c-0.1-3.3-4.9-7.1-1.1-9.6c1.7-1.2,2.1,1.9,4,1.4
	c3-0.8,3.2,3.2,6.8,2c3.3,0.6,7.4,1.2,10.8-0.5c2.2-1.4,5.2,2,3.8,3.9c-2.3,8.5,0.9,17.2-0.9,25.9
	C158.9,101.9,158.8,103.2,160.2,104z"/>
<path class="st149" d="M148.3,126.8c1.6,1.2-1.3,16.3,4.3,8.9c0.4-9.6,2.3-9.8,2.5,0.2c0.3,2.9,1.5,8.9-2.6,9.3
	c-3.6-0.1-4.3,10-12.7,15.2C142.8,149.6,149.8,138.8,148.3,126.8z"/>
<path class="st208" d="M161.9,118.8c2.5,2.4,0.3,6.1,1.7,9c1.9,1.4,4.4,6.4,0.6,6.9c-2.9-1.3-2.4,4-5.4,3.1
	c-2.7-1.4-1.3-6.8-2.8-9.3C155.3,126.6,160,119.9,161.9,118.8z"/>
<path class="st209" d="M139.9,160.3c6.8-6.8,2.7-10.3,7.2-9.3c1.4,0.4,1.3-1.4,1.3-2.3c0.7-8.1,7.3,0,6.7-12.9
	c0.8,3.3,2.8,9.2-2,10.2C149.7,146.5,140.8,167.3,139.9,160.3z"/>
<path class="st210" d="M153.4,119.3c0.3-2.2,1.2-4.1,2.6-5.8c3-2.8,1.4-6.9,3.6-9c3.1,3.7,1.3,7.2,0.3,11
	C158.5,124.5,156.5,118.8,153.4,119.3z"/>
<path class="st185" d="M160.7,113.1c0.4-2.5-2.3-7-0.6-8.5C164.1,106,161.7,116.8,160.7,113.1z"/>
<path class="st210" d="M154.5,125.6c-0.4-1.3-0.7-2.6-0.6-3.9C155.2,122.8,156.3,123.9,154.5,125.6z"/>
<path class="st211" d="M159.7,142.9c-0.8-0.2-3.6-1.5-1.8-2.3C159.1,140.8,159,142.3,159.7,142.9z"/>
<path class="st212" d="M137.5,77.9c0.5,3.4-2.4,4.2,2.9,3.7c1.8-1-0.5-6.2,1.8-6.9c3,0.8-0.2,6.6,3.9,7.1c4.2,3.8,8.3,25.7,6.1,31.8
	c-1.6-2.4,1.4-10.3-2.8-9.5c-1,0.2-1.9-0.2-1.5-1.9c1.3-5.6-0.3-11.2-1.9-16.4c-1.5,1.5-3.6-0.2-5,0.9c-3.6,1.5,1.9,7-3.1,5.7
	c-5.1-1.6-5.2-1.5-5.6-7.1c-0.2-2.7-1.9-5.1-1.4-8c-0.2-1.4,1.6-3.6-0.2-4.3c-3.9,0.2-2.9-2.3-0.2-3.6c-7.4-1-2.3,8.3-9.1,3.5
	c-5.3-1.2-2.5-7.7,3.9-5.5c-3.3-1.8-5-12.8,0.7-9.1c2.5,3.8,9.9,4.5,9.1,10c-0.8,1.7-1.4,3.3,1.2,4
	C138.6,73.5,134.6,75.7,137.5,77.9z"/>
<path class="st213" d="M140.3,108.5c4.4,1.8-4.2,14.7,3.7,7.2c6.9-4.3,5.7,7.2,4.9,11C146.3,111.5,134.7,135.2,140.3,108.5z"/>
<path class="st149" d="M150.6,135.3c-0.5-1.5-0.4-2.8,0-4.2C152,133,152,133.2,150.6,135.3z"/>
<path class="st138" d="M140.9,114.2c0-0.9,0.3-1.7,1.1-2.3C142,112.9,141.7,113.7,140.9,114.2z"/>
<path class="st214" d="M135.2,68.2c-1.9-4.4-7.4-4.6-9.9-8.7c-2.2-3.8-1.7,5.2-10.5-4.6c-1.4-2.8-19-0.6-13.1-4.2
	c6.3-12.3,20.1,1.7,28.6-7.3c5.6-5.4,4.1,2.6,3.7,6.1C133.4,53,138.8,68.1,135.2,68.2z"/>
<path class="st96" d="M83.5,67.1c-1.9-5,0.1-11.2-2.1-16.6c-1.5-2.4-0.3-3.8,2.5-4.8c3.3-2,20.5-3.7,10.4,1.9
	c-2.1,0.2-1.5,1.1-1.3,2.2c3.2,5.3,5.8,11.6-1.4,15.2c-2.2-0.1-3.1-3.5-5.5-2.4C83.7,63,85.3,66.2,83.5,67.1z"/>
<path class="st212" d="M123.8,80.5c-0.9,0.3-1.9,2.6-2.8,1.3c-2.8-4.7-4.4,2.5-8.6-1.1c1.3-3.5,5.9-2.2,8.4-4.4
	C124,73.8,123.9,78.5,123.8,80.5z"/>
<path class="st130" d="M109,78.9c0.7-1,1-2.3,2.3-2.8C111.8,78.2,110,78.2,109,78.9z"/>
<path class="st212" d="M113,74.4c0.6,0.4,1.8,0.6,1.6,1.6C113.7,77,113,75.3,113,74.4z"/>
<path class="st131" d="M108.7,80.6c0.4,0.3,0.5,0.6,0,0.7C108.3,81.2,108.4,80.8,108.7,80.6z"/>
<path class="st215" d="M83.5,67.1c-2.5-12.9,14.8-0.3,4.2-2.2c1.3,3.8-3.3,5.4-3.9,8.4C82.3,71.6,84.6,69,83.5,67.1z"/>
<path class="st129" d="M87.5,67.7c0.1-2.3-3.2-2.6-3-5.3c7,3.1,7.9,1.7,12-3.9C97.2,63.9,91.7,66,87.5,67.7z"/>
<path class="st216" d="M54.5,94.3c7.4-2.6-0.3-5.7,5.5-5.6c1.7-1.7,3.4-3.9,6.8-3.4c3.9-1-1.7-4.9,2.2-8.2c1.3-0.5,5.9-0.2,3.2,1.6
	c-4.8,2-0.4,4.9-1.2,8.7c-0.6,1.4-1.6,2.6,0.1,4.1c2.1,2.4-2,3.4-3.6,1.9c-1.9-1.4-7.6,0-3.4,1.7c2.2,2.8-4.2-0.2-4.3,4.4
	c-0.4,2.3,2.3,1.3,2.5,2.7c-8.6-1.4,0.3,4.8-6.6,2.4c-3.4,0.2-0.4-3.8-2.9-4.8C52.2,97.6,52.6,95.7,54.5,94.3z"/>
<path class="st217" d="M70.4,94.2c1.1-3.2-3.2-1.7-3.7-3.8C66.6,89,69.8,88,71,87.5C72.5,92,82.7,101.3,70.4,94.2z"/>
<path class="st129" d="M115.9,81.9c4.4-4.6,3.4-0.7,6.8-0.6c0.3,1.1-1.2,3.2-1.9,2C119.9,79.7,117.8,81.3,115.9,81.9z"/>
<path class="st218" d="M94.9,94.3c-0.1,1.3-2.1,3.4-2.8,1.3C92.4,94.2,93.8,94.4,94.9,94.3z"/>
<path class="st219" d="M73.2,77.9c-7.3-1,4.6-6.6,1.9-10.4C71.1,50.6,88.6,67.9,73.2,77.9z"/>
<path class="st220" d="M55,104c6.4,6.3-5.1,11.9-10.1,9.6c-4.6-8.2,1-3.4,1.5-8.7c0.1-2.8,0.3-5.6,1.9-8.2c1.5-2.4-3-4-1.2-6.4
	c1.1,3.2,4.8,2.8,7.4,4C56.2,102.9,40.9,101.5,55,104z"/>
<path class="st221" d="M46.5,113.7c15-7.9,11.5-5.4,11.4,9.6c-4.4,1.3-6.4-0.3-5.6-4.7c-0.8,4.1-3,0-5,2
	C44.2,122.3,47.5,115.5,46.5,113.7z"/>
<path class="st158" d="M79.5,37c-1.6-3-0.7-5.2,2.3-5.7C83,34,80.3,35.1,79.5,37z"/>
<path class="st73" d="M97.7,30.1c0-0.8,0-1.5,0-2.2C98.6,28.6,99.2,29.4,97.7,30.1z"/>
<path class="st222" d="M142.7,44.3c2,2.1-0.8,5.5,0.4,8c1.7,0.8,1.3,2.3,1.4,3.7C142.5,71.1,133.6,45.3,142.7,44.3z"/>
<path class="st223" d="M135.7,68.2c-0.6-2.6-1.3-8.6-0.8-11.3c2.7,3.1,5.1-0.1,8.2,4.6c-0.6,1.9-2.5,2.4-2.1,5
	C141.5,71.2,137.5,73,135.7,68.2z"/>
<path class="st212" d="M142.6,61.9c-5.2-3.7-4.5-5.7-3.4-11.3c-0.2,2.7,2,4.9,1.8,7.7c-0.1,1,1.3,1.5,2.2,2
	C143.9,60.7,143.6,62.5,142.6,61.9z"/>
<path class="st224" d="M78.9,64.2c-0.4-4-5.4-2.4-3.3,0.9c2.2,4.1,2.2,5.1-1.3,8.1c-1,0.9-0.2,3.2-2.4,3c-3.6-0.8,0.1-9.8-5.5-16.3
	c0.3-4.9,2.1-2.4-0.1-9.1c-1.9-6,8.3-8.3,10.4-5.1C83.2,47,79.3,59.6,78.9,64.2z"/>
<path class="st225" d="M67.6,45.5c1.7-3.9-2.5-8.6,1.1-9.1c6.8,0.7,4,3.2,6.9,7.4c-0.6,1.2-2.3,1-3.5,1.1
	C70.3,44.4,69.2,47.4,67.6,45.5z"/>
<path class="st225" d="M76.1,48.3c-2.2-1.4-4.6-0.3-6.9-0.5c-2.3-3.9,4.5-2.5,6.2-3.9C76.6,44.8,75.9,46.9,76.1,48.3z"/>
<path class="st85" d="M60.2,41.5c0.8-1.4,1.8-2.8,1.7-4.5C63,38,62.3,44.4,60.2,41.5z"/>
<path class="st226" d="M47.2,120.5c1.9-4,2.7,0.7,3.6-1.5c0.5-1.4-0.4-4.6,1.3-4.6c4,3.2-3.3,8.5,5.7,8.8
	C53.3,130.3,54,120.1,47.2,120.5z"/>
<path class="st227" d="M69.2,45.5c-5.6,9.2,8.5,35.3-4.7,36.3c2.4-1.4,4.9-11.7-0.3-9.4c-2.8,0.9-0.4-6-4.1-9.9
	c4.4-1.4,0-9.5,5.6-9.5C70.6,61,64.7,43.6,69.2,45.5z"/>
<path class="st227" d="M68.1,83c4.3,3.8-7.1,3.3-3.1,1.8C66.8,85.3,67.5,84.3,68.1,83z"/>
<path class="st97" d="M69.9,166.5c-0.9,0.3-0.8-1.2-0.3-1.7C69.9,165.3,69.9,165.9,69.9,166.5z"/>
<path class="st228" d="M89.2,155.1c3.9,4.3,10.2-6.6,5.9,3.7c-0.1,3.9-4.9,2.5-7.1,0.2C86.1,157,86.6,154.2,89.2,155.1z"/>
<path class="st229" d="M163.6,60.8c-22.1,22.8-12.5-17.8,0-9.1C167,54,162.6,57.8,163.6,60.8z"/>
<path class="st230" d="M161.4,40.9c9,1.8-6.5,19-6.3,9.7C157.6,47.6,158.9,44,161.4,40.9z"/>
<path class="st231" d="M156.8,52.9c2.8-2.3,9.8-11.8,6.9-2.3c-1.9-0.1-2,2.2-3.6,2.9C159.2,54.3,154.4,54.5,156.8,52.9z"/>
<path class="st232" d="M161.4,40.9c-5.3,18.1-10.6,7-3.4,0.6C159.3,42.9,160.4,42.4,161.4,40.9z"/>
<path class="st233" d="M157.9,41.5c-0.7,1.2-1.3,3.6-3.2,2.7C153.6,42.1,156.8,41.6,157.9,41.5z"/>
<path class="st234" d="M156.8,64.8c9,12.8-25.1,10.7-14.2-2.9c5.5-1.6,1.8,5.7,6.6,4.3C155.4,68.2,153.7,64.7,156.8,64.8z"/>
<path class="st235" d="M174.4,83.5c1.5,0.6,4.5-0.5,2.9,2.3c-3.7,3.9-2.3,9.2-5.4,13.4C170.1,94.2,168.1,85.4,174.4,83.5z"/>
<path class="st236" d="M172.7,71.1c1.9,5.7-2.4,8.6-4.9,3.5C168,72.5,170.4,71.1,172.7,71.1z"/>
<path class="st198" d="M173.9,65.4c4.8-1.4,2,5,1.6,7.9C173.8,71,173.9,68.1,173.9,65.4z"/>
<path class="st237" d="M154.6,43.7c4.6-0.8-0.2,4.7,1.6,7.4c-1.1,3.8-2.2,7.7-5.7,7.9c-3.1-2.1-1.7-6.3,0.5-8.5
	C150.6,48.1,150.6,42.1,154.6,43.7z"/>
<path class="st238" d="M154.6,43.7c-1.3,0.6-2.1,1.5-2.1,3c-1.2,8.8-4.7-1.7-2.9-4.6C151,39.2,160.5,41.2,154.6,43.7z"/>
<path class="st239" d="M149.4,53.4c4.8,9.6-8.4,6.9-6.3-1.1C144.8,49.3,145.7,54.3,149.4,53.4z"/>
<path class="st233" d="M148.8,39.2c-2.2-1.9,0.9-4.4,1.8-6.2C154.8,33.1,152.9,41.7,148.8,39.2z"/>
<path class="st179" d="M95.8,144.9c-0.4,1.1-1.2-0.2-0.3-0.5C95.6,144.6,95.7,144.8,95.8,144.9z"/>
<path class="st240" d="M172.8,151.7c1.4-2.6,0.8-5.5,1.3-8.2c0.2-3.4,5-2.4,3.3,0.8C175.8,146.7,175.1,149.6,172.8,151.7z"/>
<path class="st241" d="M164.7,134.7c0.9-2.5-1.3-4.5-1.1-6.9c1.1-1.6,2.8,0.9,4-0.6c1.4-0.3-0.4,4.1-0.1,5.2
	C167.4,134.1,166.8,135.4,164.7,134.7z"/>
<path class="st242" d="M168.2,127.8c-1.3-1.4-1.8-4.1,0-5.7C169,123.3,169.8,127.7,168.2,127.8z"/>
<path class="st212" d="M142.6,61.9c-4.6,12.2,2.7,5.3,7.4,11.4c-2.3,0.2-4.3-1.2-6.8-0.4C139.2,73.2,138.3,61.3,142.6,61.9z"/>
<path class="st214" d="M135.8,68.2c1.6,0.4,1.7,2.5,3.4,2.8C136.3,72.2,136.2,70,135.8,68.2z"/>
<path class="st214" d="M137.5,77.9c-1.1-0.6,0.3-2.1,1.3-1.8C139.8,76.9,138.3,77.8,137.5,77.9z"/>
<path class="st128" d="M142.4,83.7c0.4-0.4,0.9-0.3,1.2,0.2C143.7,84.8,142.3,84.6,142.4,83.7z"/>
<path class="st243" d="M69.3,77.9c-0.2-5.1,0-10.2-1.5-15.2C68.3,54.4,75.5,79.2,69.3,77.9z"/>
<path class="st244" d="M49.3,100c2.2-1,7.1-1.4,7.8,1.5c0.1,1.7-1.4-0.2-1.8,0.7C54.1,105,46.7,103.7,49.3,100z"/>
<path class="st245" d="M49.3,100c0.2,4.1,4.3,1.8,5.7,4c-1.9-0.2-7.8,2.2-7.6-1.1C47.7,101.8,46.7,99.6,49.3,100z"/>
<path class="st224" d="M70.5,77.8c0.4-1.6,1.1-0.7,2.1-0.1C71.9,77.8,71.2,77.8,70.5,77.8z"/>
<path class="st246" d="M143.1,56.3c2.3,0.8,4.2,2.6,6.8,2.3C152.2,75.1,141.8,68.5,143.1,56.3z"/>
<path class="st247" d="M75.5,43.8c-1.2,3.9-3.9,1.9-6.2,1.7C69.8,42.5,73.5,44.2,75.5,43.8z"/>
<path class="st248" d="M149.3,67.1c-2.7-7.9,0.9-10.8,6.4-14.7C152.3,54.8,157.9,76.4,149.3,67.1z"/>
<path class="st249" d="M100.2,195.3c-126.1-3.2-126-188,0-191.2C226.3,7.2,226.2,192.1,100.2,195.3z"/>
</svg>
