<?xml version="1.0" encoding="utf-8"?>
<!-- Generator: Adobe Illustrator 25.2.0, SVG Export Plug-In . SVG Version: 6.00 Build 0)  -->
<svg version="1.1" id="Layer_1" xmlns="http://www.w3.org/2000/svg" xmlns:xlink="http://www.w3.org/1999/xlink" x="0px" y="0px"
	 viewBox="0 0 2048 2048" style="enable-background:new 0 0 2048 2048;" xml:space="preserve">
<style type="text/css">
	.st0{fill:#608CBF;}
	.st1{fill:#3B3630;}
	.st2{fill:#595752;}
	.st3{fill:#4B5558;}
	.st4{fill:#454139;}
	.st5{fill:#4E4B44;}
	.st6{fill:#4B4C48;}
	.st7{fill:#454A58;}
	.st8{fill:#5B5750;}
	.st9{fill:#6D778B;}
	.st10{fill:#4B4C49;}
	.st11{fill:#5A8CE1;}
	.st12{fill:#4D4A45;}
	.st13{fill:#6678AE;}
	.st14{fill:#5A688D;}
	.st15{fill:#586789;}
	.st16{fill:#61729F;}
	.st17{fill:#66A1F0;}
	.st18{fill:#597498;}
	.st19{fill:#5F83B3;}
	.st20{fill:#77A2CE;}
	.st21{fill:#5E5F66;}
	.st22{fill:#637198;}
	.st23{fill:#5B5F5E;}
	.st24{fill:#636768;}
	.st25{fill:#636974;}
	.st26{fill:#44546D;}
	.st27{fill:#495F6E;}
	.st28{fill:#4E6C89;}
	.st29{fill:#52555A;}
	.st30{fill:#688094;}
	.st31{fill:#50606D;}
	.st32{fill:#4E5379;}
	.st33{fill:#5F6A71;}
	.st34{fill:#5F6D74;}
	.st35{fill:#6C7982;}
	.st36{fill:#56585C;}
	.st37{fill:#51524F;}
	.st38{fill:#444746;}
	.st39{fill:#465567;}
	.st40{fill:#5D7E9C;}
	.st41{fill:#515C7D;}
	.st42{fill:#5F7BC7;}
	.st43{fill:#52659D;}
	.st44{fill:#56718A;}
	.st45{fill:#6388A8;}
	.st46{fill:#72A5D1;}
	.st47{fill:#76A8D8;}
	.st48{fill:#506590;}
	.st49{fill:#899697;}
	.st50{fill:#617090;}
	.st51{fill:#7C868A;}
	.st52{fill:#6D89BC;}
	.st53{fill:#5282DE;}
	.st54{fill:#ADD7EB;}
	.st55{fill:#9AD0F3;}
	.st56{fill:#BDDBEA;}
	.st57{fill:#63A2F5;}
	.st58{fill:#5FA0F2;}
	.st59{fill:#6A90D2;}
	.st60{fill:#719EDA;}
	.st61{fill:#666A7D;}
	.st62{fill:#6781B9;}
	.st63{fill:#6082C2;}
	.st64{fill:#6078AF;}
	.st65{fill:#5F8DDF;}
	.st66{fill:#679FEB;}
	.st67{fill:#596987;}
	.st68{fill:#FEF8E6;}
	.st69{fill:#7AB2F0;}
	.st70{fill:#97C9F1;}
	.st71{fill:#57627F;}
	.st72{fill:#627EC0;}
	.st73{fill:#6376AF;}
	.st74{fill:#66778E;}
	.st75{fill:#799CC5;}
	.st76{fill:#677DA9;}
	.st77{fill:#566371;}
	.st78{fill:#475E7A;}
	.st79{fill:#4E6EA8;}
	.st80{fill:#507DC8;}
	.st81{fill:#5279A7;}
	.st82{fill:#5478AA;}
	.st83{fill:#476FBC;}
	.st84{fill:#546CA5;}
	.st85{fill:#545B74;}
	.st86{fill:#5C6684;}
	.st87{fill:#54658F;}
	.st88{fill:#547BBA;}
	.st89{fill:#4E5365;}
	.st90{fill:#5A6F90;}
	.st91{fill:#558AE5;}
	.st92{fill:#568CE6;}
	.st93{fill:#5478C5;}
	.st94{fill:#5A7BC0;}
	.st95{fill:#6DB8F9;}
	.st96{fill:#6EA5D9;}
	.st97{fill:#A5D5ED;}
	.st98{fill:#7BC1F5;}
	.st99{fill:#426DC6;}
	.st100{fill:#44526E;}
	.st101{fill:#777F7F;}
	.st102{fill:#6D88B1;}
	.st103{fill:#749FD6;}
	.st104{fill:#6683B4;}
	.st105{fill:#688BBE;}
	.st106{fill:#76C1F7;}
	.st107{fill:#5675B0;}
	.st108{fill:#5B82B7;}
	.st109{fill:#5FA9F9;}
	.st110{fill:#5890EB;}
	.st111{fill:#546993;}
	.st112{fill:#5FA5F4;}
	.st113{fill:#DEE8EA;}
	.st114{fill:#6EA9F3;}
	.st115{fill:#76ACEA;}
	.st116{fill:#66A2F4;}
	.st117{fill:#88BCF0;}
	.st118{fill:#82B1DE;}
	.st119{fill:#6F9FD9;}
	.st120{fill:#6BADF4;}
	.st121{fill:#5D75A8;}
	.st122{fill:#6CB6FB;}
	.st123{fill:#9DD2F0;}
	.st124{fill:#ADD5EF;}
	.st125{fill:#73B7F5;}
	.st126{fill:#58656F;}
	.st127{fill:#89CCF4;}
	.st128{fill:#8BCEF3;}
	.st129{fill:#A3D6EE;}
	.st130{fill:#80C6F3;}
	.st131{fill:#B0D8E8;}
	.st132{fill:#BDD7E5;}
	.st133{fill:#E9EBE8;}
	.st134{fill:#7BBFF9;}
	.st135{fill:#C5DEE8;}
	.st136{fill:#E3EAE8;}
	.st137{fill:#9ED2EF;}
	.st138{fill:#E4EBE7;}
	.st139{fill:#A8D4EA;}
	.st140{fill:#B7D6E7;}
	.st141{fill:#A2D4EE;}
	.st142{fill:#D2E3E8;}
	.st143{fill:#C1DDE5;}
	.st144{fill:#B4BAB6;}
	.st145{fill:#678DCA;}
	.st146{fill:#E1E9E8;}
	.st147{fill:#D1DEDD;}
	.st148{fill:#9CD2F1;}
	.st149{fill:#BCDBED;}
	.st150{fill:#6FA5E3;}
	.st151{fill:#678DD2;}
	.st152{fill:#6B9DCE;}
	.st153{fill:#79A7DB;}
	.st154{fill:#69A8ED;}
	.st155{fill:#5E646E;}
	.st156{fill:#6686B1;}
	.st157{fill:#6B8EC5;}
	.st158{fill:#5182DA;}
	.st159{fill:#659EE1;}
	.st160{fill:#5992E8;}
	.st161{fill:#5C81BA;}
	.st162{fill:#496392;}
	.st163{fill:#5772BE;}
	.st164{fill:#6397D8;}
	.st165{fill:#8AC0F2;}
	.st166{fill:#608BC8;}
	.st167{fill:#6C95BE;}
	.st168{fill:#87CBF3;}
	.st169{fill:#70BCF8;}
	.st170{fill:#516CA5;}
	.st171{fill:#5D82BD;}
	.st172{fill:#8FBDDB;}
	.st173{fill:#8AB3DB;}
	.st174{fill:#8FCCF4;}
	.st175{fill:#66A4EE;}
	.st176{fill:#5675C1;}
	.st177{fill:#729EC7;}
	.st178{fill:#97D1F1;}
	.st179{fill:#6BB7F9;}
	.st180{fill:#AAD3E9;}
	.st181{fill:#7FA5C0;}
	.st182{fill:#A3D4EF;}
	.st183{fill:#7BA1C6;}
	.st184{fill:#6EA1E1;}
	.st185{fill:#6D7F94;}
	.st186{fill:#8194A0;}
	.st187{fill:#96BFD7;}
	.st188{fill:#82A9D1;}
	.st189{fill:#86A8C5;}
	.st190{fill:#62B0F9;}
	.st191{fill:#60ACFA;}
	.st192{fill:#84C9F4;}
	.st193{fill:#63B0F9;}
	.st194{fill:#64B1F3;}
	.st195{fill:#64ACEA;}
	.st196{fill:#7197C7;}
	.st197{fill:#8CAFD3;}
	.st198{fill:#62768E;}
	.st199{fill:#91CAF4;}
	.st200{fill:#688FC2;}
	.st201{fill:#81B8F2;}
	.st202{fill:#ACD4EA;}
	.st203{fill:#A9CEEC;}
	.st204{fill:#5E6976;}
	.st205{fill:#4C5E78;}
	.st206{fill:#72BEFB;}
	.st207{fill:#62ADFB;}
	.st208{fill:#80C4F7;}
	.st209{fill:#6BB7FB;}
	.st210{fill:#4883DA;}
	.st211{fill:#81C9F5;}
	.st212{fill:#B1D9ED;}
	.st213{fill:#6EBBFA;}
	.st214{fill:#7CC2F4;}
	.st215{fill:#83ADD0;}
	.st216{fill:#74B9F5;}
	.st217{fill:#7FB9F0;}
	.st218{fill:#81C5F4;}
	.st219{fill:#76B6F4;}
	.st220{fill:#94C6F2;}
	.st221{fill:#99CEF0;}
	.st222{fill:#6FAFEA;}
	.st223{fill:#6BB5F9;}
	.st224{fill:#6897D2;}
	.st225{fill:#78B1F0;}
	.st226{fill:#5D88C7;}
	.st227{fill:#60AEF9;}
	.st228{fill:#99BFD0;}
	.st229{fill:#A1C5DA;}
	.st230{fill:#7DB0DE;}
	.st231{fill:#75A8DF;}
	.st232{fill:#9ABFD7;}
	.st233{fill:#9AD0EF;}
	.st234{fill:#658ED0;}
	.st235{fill:#80B7EB;}
	.st236{fill:#80C0F8;}
	.st237{fill:#BAD9E7;}
	.st238{fill:#6EA8E2;}
	.st239{fill:#A7D4F0;}
	.st240{fill:#77ABD7;}
	.st241{fill:#8DB2D6;}
	.st242{fill:#6099E3;}
	.st243{fill:#5789DF;}
	.st244{fill:#9AC8EE;}
	.st245{fill:#93BFDB;}
	.st246{fill:#7DB5E7;}
	.st247{fill:#BDDCE6;}
	.st248{fill:none;stroke:#333333;stroke-width:48;stroke-miterlimit:10;}
</style>
<path class="st0" d="M1156.9,1692.4c-65.3-23.3-17.9-64.5-55.4-106.1c-128.5-5.8-307.7,34.3-427.8-21.4
	c-100.1-20.3,96.1,138.2,193,81.8C1029,1592.4,974.7,1741.9,1156.9,1692.4z"/>
<path class="st1" d="M388.9,1255.1c-8.1-63.2,2.8-122.4,20.9-172.6c9.2-55.2-33.9-33.3-25.8-71C311.6,924.7,369,1217.8,388.9,1255.1
	z"/>
<path class="st2" d="M1140,385.7C1140,385.5,1139.7,385.5,1140,385.7L1140,385.7z"/>
<path class="st2" d="M1089.8,373.7c278.2-22.3-502.3-37-251.7,59.6c70.1,21.7,148.9,30.5,221.1,40.3c22.2-4.6,17.2-42,42.5-14
	C1354.7,428.8,1242.2,406.4,1089.8,373.7z"/>
<path class="st3" d="M556,869.8c-15.8-4.5-82.2,41.3-61.9,0.4c12.1-21-16.4-35.5-10.8-57.5c2.7-32.1-22.2-58.7-15.4-91.4
	c-14.8-58.2-52.7-19.2-36.3,20c38.2,64.2-90.6,138.9-11,147.1c-42.2,2.5-29.2,44.1,6.6,44.9c-49.4,8.7-30.6-27.8-64.5-36
	c-41.1,153.3,75.8,118.1,27.8,300c-19.2,58.6,27.7,116.1,50.3,170.1c25.3-98.5-11.3-118.8,48.8-207.3c19,57.3,43.5-123.9,23.8-120.4
	c-32.1-14.2-34.9,32.9-48.2,18.4c-42.2-48.1-32-94,36-100.8c51.2-9.2,22.1-21.1,43.1-46.5c8-10.8,20.6-6,30.9-9.1
	C598.7,889.1,575.9,863.9,556,869.8z"/>
<path class="st4" d="M377.6,836.7c34.8,2.6,20.4-49.2,25.3-70.9C393.2,788.8,384.7,812.5,377.6,836.7z"/>
<path class="st5" d="M665.4,485.5c39.9-6.1-17.1-65.9,72.7-10.1c31.5-31.8,98.9-19.4,77.7-47.7c49.9,7.1,10.3-16.2-13.3-20.1
	C772.8,386.4,619.3,459.5,665.4,485.5z"/>
<path class="st6" d="M494.7,635.5c16.2-1.5,37.6-3.8,32.9-25.1c-3.7-15.7,9.7-28.8,3.9-43.1C519.7,583.9,447.8,650.5,494.7,635.5z"
	/>
<path class="st6" d="M383.7,941.4c0.8,19.2,48.4-9,70.4,2.7c36.8,4.7,32.5-38.6-2.4-24c-10.3,11.9-48.7,1.8-48.2-12
	c4.2-16.5,42.5-9.8,49.2-23.9c-13.6-16.9-83.6,10.1-33.4-41.4c30.1-19,33.8-74.1,29.7-101.7c-29.7-21.5,1.9-46.3,2.3-68.8
	C412.2,755.2,336.3,856.1,383.7,941.4z"/>
<path class="st7" d="M478.8,1375c-67.9-45.1-6.7,47.6,13,67.9C487.5,1420,489.8,1396.1,478.8,1375z"/>
<path class="st8" d="M1304.9,411.7c-5.9,15.1,44.6,25.5,55.9,28.5C1342.6,429.9,1324,420.4,1304.9,411.7z"/>
<path class="st9" d="M1595.7,662.8c-0.9,16.1-0.9,46.3,23,38.6C1611.5,688.3,1603.8,675.4,1595.7,662.8z"/>
<path class="st10" d="M401.7,1260.7c-40.3-22.8,42.4-177.9,4.1-169.5C313.9,1154.8,471.3,1427.6,401.7,1260.7z"/>
<path class="st11" d="M1174.4,1631.3c11.5-100-37.5-191.1-57.4-284.2c-12.5-12-10.4,25.5-51.3,30.4c18.6,25.7-1.2,78.6,18.9,91.1
	c16.9,1.1,13.8-18.8,20.8-28.3c30.4,13.5,17.3,67.4,13,94.5c8.8,69.7-1.1,39.3-19.4,75.5c31.2,32.6-22.7,60.8,43.4,84.8
	C1229.5,1678.7,1173.8,1693.7,1174.4,1631.3z"/>
<path class="st12" d="M1141.6,361.8c-226.2-2.9,128.4,82.3,167.8,56.8C1273.2,387.2,1196.3,374.4,1141.6,361.8z"/>
<path class="st13" d="M1678.2,846.5c-67.5-25.7-25.8,73.6-37.4,112.4c-6.6,38.1,32.3,59.3,22.5,6.4
	C1724.3,1105.2,1694.6,882.3,1678.2,846.5z"/>
<path class="st14" d="M1645.9,1300.8c10-35.3,75.7-157.6,24.5-173.7c-19.7,1.3-17.8,24.8-20.9,39
	C1654,1214.2,1662.3,1253.6,1645.9,1300.8z"/>
<path class="st15" d="M922.3,1667.4c-39.7-24.5-88.1,0.2-131.7-4.7C810.2,1670.2,989.7,1731.4,922.3,1667.4z"/>
<path class="st16" d="M1676.5,931.8c-34.3,15.6-14.8,42.7-21.1,68.1c22,49.7-30,108.6,6.4,154.7c11.6-45.5,13.2,0,27.1,12
	c10.8-51.7,15.6-107.1,13.7-161.5C1673.6,990.7,1668.6,965,1676.5,931.8z"/>
<path class="st17" d="M1233.6,1602.2c-90.6-105.1-109.5,151.7,20.4,63.6C1250.1,1621.9,1226.8,1620.1,1233.6,1602.2z"/>
<path class="st18" d="M853.5,1638.5c-26.7,5-52.5,14.7-79.4,17.8c50.7,37.2,152.5-20.5,152.7,41.4c7.6,1.1,15.3,2.1,23,3
	c2.8-19.6-15.5-52.4,19.1-49.1C1054.6,1626.9,872.7,1625.9,853.5,1638.5z"/>
<path class="st19" d="M993.7,1662.7c-5.7-12.4,3.2-15.9,13-17.9c-3.9-6.1-8.7-5.8-13-6.5c-15.2,13.6-60.9-14.8-59.6,12.7
	C915.7,1732.4,1060.8,1711.2,993.7,1662.7z"/>
<path class="st20" d="M1059,1667c-6.7,0.8-3.8,14.1-16.7,5.2c-55.8-24.1-42.7-15.1-40.5,32.3C1041.2,1703.4,1060,1718.1,1059,1667z"
	/>
<path class="st21" d="M1319.3,418.5c-73.5-12.9-142.5,30.3-210.9,35.7c-20.4-17.9-29-16.1-43,8.2
	C1129.8,487.6,1517.6,496.4,1319.3,418.5z"/>
<path class="st22" d="M1101.5,462.6c51.3,8.4,274.6-12.5,165,75.7c-31.7,14.1-22.7-44.6-52.4-33.6
	C1096.8,525.5,812.6,459.9,1101.5,462.6z"/>
<path class="st23" d="M741.6,470.6c67.5-105.8,256.3-1.2,80.7,17.7C808.5,463.1,732.4,502.5,741.6,470.6z"/>
<path class="st24" d="M789.5,470.6c50.2,1.2,42.8,35.7,49.6-7c12.9,47.3,36.9-2.4,54.4-21.2c44,5.4,88.1,10.8,132.1,16.1
	c-23.8,0.1-39,14.3-52.1,31.9c-27,2.4-54.2,2.7-81,7.7c-19.7,0.1-30.5,27.6-49.6,15.3C827.4,501.7,770.9,499.4,789.5,470.6z"/>
<path class="st25" d="M1101.5,462.6c-9.1,2.7-33.9,9.1-35.9,0C1077.5,464.3,1089.5,449.1,1101.5,462.6z"/>
<path class="st24" d="M1057.5,466.5c-10.2,0.4-19.5-2.4-28.1-7.8C1042.9,446.5,1048.8,461.5,1057.5,466.5z"/>
<path class="st26" d="M600.5,1490.6c-15.4-15.9-33.2-30.8-32.4-54.4c0.8-26.6-28.2-35.7-30.8-6.1c15.3-120.4-46.3-79.9-18.3-131.4
	c13.5-13.3-5-19,9.4-33.5c-5.4-24.2,13.1-25.5,10.2-42.6c-46.4-43.6-16.4-47.1-37.1-60.3c-22.8,9.2-8.8,3.8-19.3,21.4
	c-19.7,25.9-8,63.1-14.6,90.1c-8.2,28.7-43.9,81-3.2,94.5c11-9.3,5.2,5.2,8.9,6.2c9.2,20.8,13.1-0.8,13.2-12
	C438.7,1455.3,705.5,1662.9,600.5,1490.6z"/>
<path class="st27" d="M505.6,1134.5c8-47.1,19.4-138.3-32.9-52.1c-3.9,3.1-9.2,6.7-10.3-0.9c-39-73.3-61-130.9,45.5-135.7
	c54.4-8.7-26.3-69,72.3-37.7c73.1-6.6,41.7,207-6.8,143.6c2.4-26.8-7-48.6-26.8-66.2C492.9,922.5,581.1,1174.4,505.6,1134.5z"/>
<path class="st28" d="M553.4,978.7c23.8,32.5,30.3,18.3,30.3,64.1c2.8,53.3,58.8-75.9,21.7-112.6c-49.5-41-67.8,41.6-71.7-35.7
	c11.8-4.2,23.8,2.4,35.6-0.5c18-5.5,75.6-31,73.1,3.5c-34,48.3,22.4,133.4-32,182.8c-7.5,15-30.1,35.7-20.2,52.7
	c1.5,25-27.9,37.3-34.3,60.3c-7.3,17.5,15.3,29.6,5.4,47.1c-2.3,10.1-14.7,18.1-23,8.8c-7-7.8,5.4-19.2-4.9-26.4
	c-5.8-4.4-15.2-0.8-19.6-8.5c5-21.4-10.7-45.9-1.9-69.5c42.1-29.7-22.9-215.7,25.5-188.3C571.7,976.7,536.2,996.1,553.4,978.7z"/>
<path class="st29" d="M582,602c-36,25.4-56.1-20.8-64.5,24.5c-12.2,10-22.9-1.8-36.3,1.6c-109.8,117,70.8,102.2,23.9,66.1
	c23,2.8,39.9-20.1,50.8,12.5C613.9,766.7,654.1,582.5,582,602z"/>
<path class="st30" d="M513,709.9c-37.9-8.4-33.7-55.2-7.3-31c2.7,8.2,6.3,13.8,17,12c45,12.3-2.1,122.2,7.5,161.7
	c9.7,33.8-37.4,46.3-59.8,30c34.3-25.8-13-67.5,1.3-121.6C507.5,730.3,443,710.4,513,709.9z"/>
<path class="st31" d="M485.2,1266.2c-14-15.3-1.9-64.8-4.1-87.9c-20.6-1.2-38.7,34.4-40.3,55.9c-1,37,15.1,76.4-8.6,111.8
	c1.1,15.5,14.7,29,21.6,42.8c-11.5-12.4,28.9-38.4,1.2-35.2c3.5-21.9,3.9-56.7,27.5-73.2C488.3,1276.9,492,1271.1,485.2,1266.2z"/>
<path class="st32" d="M641.4,890.8c-24.3-4.9-47.8,8.1-72.1,3.2c43.4-38.8-20.3-160,84.2-99C661.5,813,678.7,902,641.4,890.8z"/>
<path class="st33" d="M585.5,870.6c1.5,16.5-66.6,6.2-95.1,27.4c-6.8,2.4-12.7,5.8-20.1,1.3c24.2-25.4,59.3-5.7,49-53
	c-8.2-54.5,32.8-60.8,41-6.4C588.7,804.3,593,840.5,585.5,870.6z"/>
<path class="st34" d="M482,711c35.8,29.3-7.6,41,13.3,47.3c4.2,1.1,11.3,1.1,9,7.6c-6.2,10.5-21.5-2.4-30.7-3.3
	C464.9,766.5,451.2,701.9,482,711z"/>
<path class="st27" d="M517.6,1146.4c-2.7,21.4,10.4,50.6-3.9,67.9C509.5,1198.7,483.5,1139.1,517.6,1146.4z"/>
<path class="st35" d="M481.3,1237.7c-17.6-29.8,21.5-138.6,8.6-51.1C473.7,1199.1,487.2,1221,481.3,1237.7z"/>
<path class="st29" d="M462.1,722.2c15,10.3,3.9,28,11.5,40.4C475.1,809.1,452.8,740.9,462.1,722.2z"/>
<path class="st26" d="M517.6,1146.4c-13.9,6-20.9,2.6-11.9-11.9C515.9,1138,519.5,1132.3,517.6,1146.4z"/>
<path class="st36" d="M596.9,505.9c-12.4,13.1-35.5,24.4-40.8,40.6c30.5,11.2,21.6,49.9,47.5,51.3
	C667.8,576.9,712.9,391.8,596.9,505.9z"/>
<path class="st37" d="M596.6,506.2c6.9-1.9,11-5.5,12.6-10.1C604.9,499.4,600.7,502.7,596.6,506.2z"/>
<path class="st37" d="M536.7,561.9c-2.6,2.8-5.2,5.6-7.8,8.4C533.5,569.3,535.3,565.7,536.7,561.9z"/>
<path class="st38" d="M670.6,465.2c-2.5,25.9-34,87.6,10.9,96.1c10.2,0.4,24.2-2.3,25.4-14.6c-1.1-32.2,33-56.1,30.6-76.5
	c-4.3-10.5-28.8-26.8-44-30.7C684.1,447.5,661.8,449.6,670.6,465.2z"/>
<path class="st39" d="M657.5,538.5c15.6,21.4,52.5,15.3,41.4-14.3c-5.3-11.6-3.9-18.2,9.1-22.6c14.9-5,21.5-19.1,29.5-31.3
	C774.1,693.5,609.3,556.8,657.5,538.5z"/>
<path class="st29" d="M521.7,590.5c11.8,41.7,28.5-19.3,20.9-34.8C531.5,565.3,524.4,576.2,521.7,590.5z"/>
<path class="st37" d="M517.5,626.5c3.7,30.9-17.8,21.7-23.9,0.1C501.5,626.7,509.5,621.2,517.5,626.5z"/>
<path class="st37" d="M521.6,590.6c2.9,9.1,16.7,11.1,16.1,18.5C521.8,615.5,516,606.8,521.6,590.6z"/>
<path class="st40" d="M733.6,1590.2c-50.3-20.7-64.6,45.6-71.7-38.3c37.2-36,115.9-14.7,165.7-15.2c41.9,3.4,89.7-5.7,130.1,8.9
	c27.3,13.8,79.3-38.4,98.3-6.6c5.7,21.7,24.1,21.5,6.7,44.5c1.4,27.5-27.6,3.2-37.9,22.3c-25.5,12.9-66.3-16.2-95.5-15.2
	c2-22.2,2-22-21.6-22.3C863.1,1575.9,754,1547,733.6,1590.2z"/>
<path class="st41" d="M628,1565.1c-11.8,11.2,16.5,18.6,23.9,26.8C644.4,1582.6,644.8,1560.4,628,1565.1z"/>
<path class="st42" d="M1089.5,1458.4c-7.9-74.2,42.8-30.9,44.8,14.6c3.1,26.8-9.8,55.3-3.7,80.4
	C1125.7,1689.6,1042.2,1512.2,1089.5,1458.4z"/>
<path class="st43" d="M681.9,1439c0.3-33.6-55.9-17.6-27.6,4.3c-6.4-4.2-13.6-3.6-19.7,0.6c-16.2-0.8-6-26.9-24.3-25.6
	c-12.4-0.5-17.4,14.5-18.2,24.6c-11.6,31.8-33.2,13.2,1.5,51.5c52.4,17.9,1.2,71.4,65.7,102.4c-12.2-32.9,20.3-49.1,2.6-70
	C653.8,1511.3,690.1,1479.5,681.9,1439z"/>
<path class="st44" d="M733.6,1590.2c-52.7-50.8,299-46.1,200.8-3c-5.7,2.6-10.4,12.2-17.4,7.4C859.3,1579.5,794,1600.1,733.6,1590.2
	z"/>
<path class="st45" d="M761.2,1594.1c28.6-29,75.9-8.3,112.3-11.7C1062.1,1603.1,787,1611.8,761.2,1594.1z"/>
<path class="st46" d="M1082.1,1514.2c4.5,34.3,37.6,107.4-22.5,67.2C1074.9,1565.9,1045.5,1521,1082.1,1514.2z"/>
<path class="st47" d="M1049.3,1648c-0.8,9.7-19,7.7-21.2-0.6C1026,1638.3,1047.2,1641.4,1049.3,1648z"/>
<path class="st48" d="M489.6,1356c-3.2-52.8-21.3,68.6,2,86.7C487,1414,490.7,1384.9,489.6,1356z"/>
<path class="st31" d="M461.4,1366.6c12.9-3.5,8.9-15.9,13.7-27.4C480.7,1354,475.5,1389.3,461.4,1366.6z"/>
<path class="st31" d="M481.2,1382.1c0,4.1,0,8.2,0,12.3C472.1,1387.9,469.2,1366.3,481.2,1382.1z"/>
<path class="st49" d="M1533.9,623.6c-2,26.9,8.9,51.6,10.9,77.7c14.2,11.6,48,47.4,53.3,8.6C1604.9,677.4,1524.8,525.1,1533.9,623.6
	z"/>
<path class="st50" d="M1401.1,480.7c35.5-2.2-4.8-15.8-18.1-27.3C1368.4,465.6,1384.7,486.5,1401.1,480.7z"/>
<path class="st50" d="M1528.3,578.4c-15.7-27.9-49.1-50.9-73.7-73.7c2.8,30.4,51.8,37,55.9,72.4
	C1512.7,586.3,1521.5,587.9,1528.3,578.4z"/>
<path class="st51" d="M1582.2,661.6c0.1,93.7,54,36.1-0.1-19.2C1582.1,648.8,1582.2,655.2,1582.2,661.6z"/>
<path class="st52" d="M1600.8,731.2c-8.5,31,28.4,28.7,29.9,53.9c3.2,10.5-0.9,44.7,18.7,31.1C1675.8,783,1594.9,633.4,1600.8,731.2
	z"/>
<path class="st53" d="M1112.8,1346.3c-9.1,103.5-75.5-10.4-96.9-31.9c-18.4-77.1,59.2-42.2,58.3-73.9c-18.3-19.3-38,22.6-58.1,23.6
	c-33.3,31-31.4-34.8,1.8-35.9c28-49.1,19.9-42.2,82.6-26.9C1142,1220.2,1129.9,1323.1,1112.8,1346.3z"/>
<path class="st54" d="M1165,1563.2c-36.7-105.9-6.2-218.9-24.4-320.3c-26.5-44.6,67.7-34.2,46.4,63.1
	C1185.3,1393.3,1243.7,1490.7,1165,1563.2z"/>
<path class="st55" d="M1137.6,1226.3c4.5,16.4,48.9,17.9,20.4,38.6c-4.3,11,17.6,24.3-4.7,29.7c-1.3,37.9,20.5,42.8,6.4,52.5
	c-22.4,41.6,13.5,108.5-10.6,140.1c-13.1-10.1,0.5-25.6-7.4-36.7c-3.3-28.8-18.5-54.5-21-83.6c-2.9-41.5,9.4-84.1,4.8-124.3
	C1109.8,1228,1132,1200.9,1137.6,1226.3z"/>
<path class="st56" d="M1165,1563.2c43.2-132.3,46.6-92.5,68,18.9c1.6,7.8,1.6,16-7.7,20.2C1213.1,1574.1,1161,1600.6,1165,1563.2z"
	/>
<path class="st57" d="M1125.6,1242.4c9.9,6.8,18.3,13.2,6.8,26.5c-11.7,59.5,5.4,121.6,9.3,181.5
	C1105.9,1389.9,1106.7,1295.9,1125.6,1242.4z"/>
<path class="st58" d="M1049.4,1346.4c54.4,28.8,34.4,236.5,18.5,114.7C1076.5,1423,1029.7,1375.7,1049.4,1346.4z"/>
<path class="st53" d="M1085.7,1490c0.7-10.7-2.5-22.2,3.8-31.6C1095.7,1469.8,1093.9,1480.3,1085.7,1490z"/>
<path class="st59" d="M1661.3,1074.5c-1.4,321.3-58.4,240.7-37.7-11C1637.3,822.4,1648.8,888.5,1661.3,1074.5z"/>
<path class="st60" d="M1649.4,890.5c-18.2,36.9-6.4,80.3-8.2,119.9c-62.3-34.4-5.6-161.6-28.4-219.2c-17.7-44.4,26.4-46.2,28.3-11.1
	c-5.8,42,19.7,43.2,8.5,62.4C1649.5,858.6,1649.4,874.6,1649.4,890.5z"/>
<path class="st61" d="M1677.9,858.6c5.5-18.1-15.2-53.8-21.2-76.5C1647.5,799.5,1641.6,876.2,1677.9,858.6z"/>
<path class="st9" d="M1653.4,842.7c-6.3-33.9,19.1-42-3.7-77.8C1648.7,788.2,1636.9,827.1,1653.4,842.7z"/>
<path class="st62" d="M1661.3,1074.5c-18.6-32.2-11-132.5,12-39.5C1687,1072.5,1657.8,1045.5,1661.3,1074.5z"/>
<path class="st63" d="M1629.5,1335.5c2.4-4.7,4.7-9.3,7-14.1C1630.2,1324,1629.1,1329.5,1629.5,1335.5z"/>
<path class="st64" d="M1661.1,1166.4c-16.4,49.5-25.8,104.3-24.4,154.6C1673.8,1244.2,1669.5,1247.2,1661.1,1166.4z"/>
<path class="st65" d="M1479.9,1530.6c-1.4,0.1-2.1,1.7-2.9,2.6C1477.9,1532.3,1478.9,1531.5,1479.9,1530.6z"/>
<path class="st66" d="M1396.5,1593.2c-29.2-8.3-81.9,3.3-71.7,42.6C1347.6,1623.2,1381.2,1608.6,1396.5,1593.2z"/>
<path class="st67" d="M1451.8,1542.3c-18.3,31.3,9,4.9,21.4-5.8C1467.6,1527.4,1454.8,1532.8,1451.8,1542.3z"/>
<path class="st68" d="M1225.3,1602.3c-59.8-141.5,19.4-374.8-156.7-422.9c-56.5,2.9-80.8-77.6-117.8-66.1
	c-55.4,47.9-94.7,72.3-169.5,70.4c-63.1-31.6,78.5-53.2,59.1-100.9c-29.2-30.4-44,101.6-96.7-11.5c-16.1-27.3,50.9-46.4,64.6-67.9
	c22.6-15.7,59.2,19.3,76.1,34.6c-23.7-34.2-104.7-121.5-50.6-153.1c17.2-6.8,20.6-33.2,41.9-32.3c16.5,6.8,17.4,23.1,10.2,32.8
	c-10.1,13.7,10.3,3.3,5.1,10.3c-8.2-90.6,241.3-186.6,205.9-46.1c-74.1,88.7,5,118.7,29.2,203.4c10.7,32.4,54.6,5,40.3-20.1
	c-35.1-54-72.3-101.5,12.7-126.5c77-140.1,152,262.8,99.9,307.5c192.3-51.9-26.7,295.8,4.7,383.3
	C1287.5,1629.2,1223.2,1633.4,1225.3,1602.3z"/>
<path class="st69" d="M1335.1,1596.3c-34,1.9-66.8,17.6-93.7,38.3C1201.3,1715.5,1380.5,1619.3,1335.1,1596.3z"/>
<path class="st70" d="M1314.1,1610.3c-53.7,4.6-27,25.6-72.8,24.4c-8.5-7.5-27.3-9.2-15.7-27.9c14,14,30.1,3.8,44.9,2.9
	c11.5-1.6-8.6-49.1,6.4-68.1c15.5,8.7,39.3,9.6,35.3,37C1302.1,1590.2,1303.2,1598.9,1314.1,1610.3z"/>
<path class="st71" d="M1379.9,451.6c-35.2,4.8-67.1,22.5-102.3,26.7c30.5,4-8.1,41.9-12.3,56.3c8.3,7.3,34,24.4,41.1,8
	c2.7-14.9,22.6-20.5,19.6-35.8C1295.2,453.2,1405.3,495.8,1379.9,451.6z"/>
<path class="st72" d="M977.6,494.6c31.5-22.5,65.3,10.9,100.1,3.2c25.2,0.6,42,24.7,68.8,19.2c27.8,5.7,72.4-17.1,89.1,11
	c2.8,21.9,18.1,3.5,44.9,23.5c26.7-0.1,36.6-4.7,29.4,29.9c-18.6,15.6,7.1,49.7-19.2,56.3c-16.3,2.4-17.8-13-21.9-24.7
	c3.4-73.1-90.2-34.3-133-44.2c31.6,9,69.4-6,103.8,1.5c26.4,1.1,41.5,42.6,12.2,50.1c-50.9,4.5-116.7,14-159.2-12.2
	c-8.6,4.6-14.2,15.4-26,18.6c-32.4,16.3-58.4-67.4-16.2-64.2c-17.4-9.6-18.1-14.6-3.2-37.4c-17.6-0.2-32.5-15.1-49.8-1.3
	C979.1,530.4,961.1,508.5,977.6,494.6z"/>
<path class="st73" d="M1229.6,533.9c-20.4-28-96.6,12.3-124.4-14.1c-13.5-21.2-171.4-24-94.3-40.1c34.8,33,287.1-5.2,237.3,30.1
	C1245.2,525.1,1262.9,553.8,1229.6,533.9z"/>
<path class="st74" d="M797.3,486.4c15.9,7.3,35.8,3.8,49.1,19c17.4,12.6,10.3-26,78-21.7c26.9,6.2,29-30.1,49,6.7
	c0.3,6.8-2.5,12.6-10.2,14c-18.8,3.2-31.4,25.1-52,17.4c-34.3-7.4-14.6,29.5-48.7,43c-8.3,5.1-22.5,3.9-25.1-7.8
	c-4.6-37.7-45.4,3.8-48-30.4C788.7,512.3,778.7,493.3,797.3,486.4z"/>
<path class="st75" d="M1229.6,533.9c19.5-1.1,72.8-1.1,48.3,28.8C1272.2,547.3,1194,542.7,1229.6,533.9z"/>
<path class="st76" d="M929.2,514.2c20.3-18.7,71.2-28.5,41,9.2C955.8,522.8,933.5,536.8,929.2,514.2z"/>
<path class="st77" d="M797.3,486.4c-11,76.7-48.4,3.3-51.2,57.2c-17.5,43.2-26-54.5-4.5-64.9C768,469.4,782.2,455.9,797.3,486.4z"/>
<path class="st78" d="M581.3,1462.1c-17.7,43-13.3-44.9-30.3-40.9c-16.6,5.8,12.2,40.5-14.7,40.7c-34.9,11.1,12.2-152.7-18.2-92.8
	c-3.7-19.5-48.2-101.1,0.6-77.8c-9.1-31.5,1.8-37.7,21.2-11.5c-3.9-11.8-12.2-41,10-29.7c5.9-21.8,11.3-13.1-0.2-35.6
	c39.4-69.7,38.2,99.6,52.5,123.1c9.3,25.4-8.9,45.7-10.9,69C582.6,1423.5,595.6,1451.5,581.3,1462.1z"/>
<path class="st78" d="M620.3,1496c-0.8-6.2,10.4-14.7-1.7-18.1c-15.5-6.4-13.5,16.8-25,16.4c15.6,22.3,33.1,44.5,19.5,69.7
	C646.3,1599.6,618.2,1512.8,620.3,1496z"/>
<path class="st28" d="M541.4,1254.1c6.8,7.8,19.4,61.3-1.2,47C513.4,1284.8,516.5,1188.4,541.4,1254.1z"/>
<path class="st79" d="M541.4,1254.1c-11.5-4.7-10.7-38.6-3.6-47.2C545.3,1222.7,540.1,1238.4,541.4,1254.1z"/>
<path class="st78" d="M566.4,1485.3c10.9,1.6,15,5.3,15.7,13.8C573.8,1499,571.3,1493.5,566.4,1485.3z"/>
<path class="st3" d="M489.9,1186.8c0.3-3.9,0.6-7.8,0.9-11.8C497.1,1178,499.9,1193.9,489.9,1186.8z"/>
<path class="st79" d="M581.3,1462.1c-15.9-30.9,7.6-60.4,3.2-90.9c-1.4-9.7,14.5-11,11.3-14.7c-13.1-31.4-1.2-72-17.1-101.3
	c-11.5-7.8-14.4-14.6-5.7-27.5c5.4-8-12-12.4-7.6-23.1c-51.7,30.8,6.1-115.1,43.4-13.5c11,20.2-18.4,31.3-7.3,55.8
	c-3,31.4,80.4,302.5,9.8,179.6C596.9,1427.2,602.9,1494.9,581.3,1462.1z"/>
<path class="st80" d="M593.7,1286.6c7.2-25-19-57.2,1.4-75.8c6-4.2,9.6-8.8,4.3-16.5c-62.4-60,29.5-104.4,32.1-170.9
	c21.9-40.7,12,52.8,4.7,63.4c-56.7,100.6,8.4,47.3,9.4,140.7C621.6,1269.6,639.3,1429.7,593.7,1286.6z"/>
<path class="st81" d="M637.3,1014.7c10,31.3-81.4,176.6-52.6,92.4c39.5-42.2,52.2-89.8,40.9-148.6
	C647.5,946.5,647.3,1009.2,637.3,1014.7z"/>
<path class="st82" d="M553.4,978.7c-1.5,12.8,9.1,35.6-7,41.3C524.5,1015.8,526.7,984,553.4,978.7z"/>
<path class="st83" d="M632.6,962.5c-12.2-3.7-5.7-18.2-7.4-28.2c-4.2-27.5-1.6-31.6,22.3-34.5C652.1,916.7,653.4,958.3,632.6,962.5z
	"/>
<path class="st84" d="M645.7,898.7c-11.7,9.1-22.6,18.6-20.5,35.6C598.9,896.3,670.1,878.8,645.7,898.7z"/>
<path class="st79" d="M581.8,1138.8c-2.8,3.9-5.6,7.7-8.4,11.6C568.9,1141.3,574.5,1139.4,581.8,1138.8z"/>
<path class="st79" d="M553.9,1238.6c-1.4,3.8-2.7,7.6-4.1,11.5C551,1246.2,542.8,1238.9,553.9,1238.6z"/>
<path class="st85" d="M533.5,565.2c-1.4,47.9-8.6,71.3,48,50.7c25.4-23.9,28.7,20.9,28.2,37.8c-0.8,19.6-15.2,33.8-16.5,52.5
	c109.9-13.2,26-113.7,63.8-113.6c13.9-4.3,31.3,13.8,40.4-2.3C670.7,575.6,633,509,620,570.8c-4.1,7-3,19.1-15.1,17.7
	C578.6,573.5,588.4,506.3,533.5,565.2z"/>
<path class="st86" d="M533.7,802.4c-16.4-35.2,9.8-98.8-28-123.5c26.8,28,8.1-14,32.8-8c20.2-2,17.1,20.6,27.1,31.6
	C598.3,739.6,548.6,770.9,533.7,802.4z"/>
<path class="st85" d="M533.7,802.4c-2.2-39.1,46.8-52.6,31.9-99.9c8.9,7.5,16.9,13.5,28.3,4.1c40,69.3-17,54.1-7.2,92.6
	c10.9,27.5-15.9,23.4-13.2,47.4c-38.8,17.8-14.2-18.6-15.4-36C552.3,838.1,542.4,812.3,533.7,802.4z"/>
<path class="st34" d="M513,709.9c-6.3,5.8-12.8,5.1-19.6,0.8C500,710.5,506.5,710.2,513,709.9z"/>
<path class="st84" d="M657.8,870.5c-4.5-127.5-34.7-44.1-52.7-87.5c-30.5-80.8,45-129.5,35.8-64.9c-1.6,6.6,5.8,18.2,11.5,9.8
	c3.3-14.9-17.4-16.7-10.2-39.8c8.2-11.3,2.6-32.5,18.1-37.8c29-3.2,104.5-151.3,98.6-62.3c-15.1,14.6-2.7,37.4-16.1,53.8
	c-21.4,22.4,7.7,61.2-26.6,74.8c-30.2,7.3-36.6,83.6-6.3,55.1c14.9-19.2-6.5-51,19-63.2c10.5-4.8,18.6-0.9,23.1,8.3
	c18.1,31.1-23.3,38.7-13.6,66.9c5.6,29.6-27.1,47.1-53.6,40.9C648.9,811.2,691.5,876.2,657.8,870.5z"/>
<path class="st87" d="M729.2,578.4c-0.7,35.8-49.9,73.5-73.5,89.1c2.9,7.9,14.7-5.4,14.9,6.6c0.2,9.8-6.1,14-15.5,14.5
	c-66.7,5.4-36.5,61.5-53.7,94.3c-8.2-1.9-7.7-6.6-4-12.4c-8.5-130.3,15.7-36.1,47.9-111.8c8.2-15.8-25.5-19.5-6.6-33.7
	c14.7-16.6-25.4-9.4-22.1-24.8C642.4,557.7,698,608.5,729.2,578.4z"/>
<path class="st88" d="M657.8,870.5c22.5-17.3-21-68.4,28.2-56.9c109.5-20.3,35,82.7,43.1,143.2c-57.1,59.9-57.6-64.4-51.3-96.8
	c-4.5,10,2.4,29.2-20.5,26.7C653.4,881.9,658,875.9,657.8,870.5z"/>
<path class="st89" d="M597.3,770.5c8,20.9-9.5,41.3-0.8,64.2c2.8,13,0.1,26.3-11.1,35.9C582.8,851.8,557.8,697.3,597.3,770.5z"/>
<path class="st28" d="M656.7,878.6c1.5,5.5,1.1,15.3-7.1,12.2C649.6,885.6,651.5,880.9,656.7,878.6z"/>
<path class="st89" d="M545.6,822.5c6.8-10.3,1.6-23.1,6.1-35C589.2,817,550.6,860.4,545.6,822.5z"/>
<path class="st89" d="M549.7,846.3c7.9,0.1,15.8,0.2,23.6,0.3C565.3,863.5,557.5,858.9,549.7,846.3z"/>
<path class="st90" d="M757.5,578.5c-15.9-40.5-39.4,49.2-16.1-68c21.4-29.3,29,32.9,52.1-11.8c-0.8,48.9,39.6,43.1,17.6,66.4
	C799.7,577.6,770.4,584.9,757.5,578.5z"/>
<path class="st91" d="M773.8,1541.5c-73.9,3.9-80.4,7.5-56.6-68.3c12.3-35-9.6-69.4,1.4-103.9c60-75.5-26-221.8,96.3-174.8
	c40.5,88.6-30.6,20.3-35.3,140.3c-15.9,66.6,22.3,48.3-9.5,114.6c-2.7,21.2,42.2,23.8,20,61C784.3,1521.7,790.4,1537.8,773.8,1541.5
	z"/>
<path class="st92" d="M973.4,1558.1c-22.8-8.3-79.9-10.3-74.3-42c4.9-17-12.3-32.9-22.5-13.1c-43.9,78.8-62.1-107.2,29.9-53.3
	C943.8,1454.6,985.9,1521.8,973.4,1558.1z"/>
<path class="st93" d="M725.7,1410.3c22,30-36.5,129.7,3.7,132.5c-23,4.4-46.5-2.7-68,12.1c-19.7-66.7,23-21.7,21.4-98.4
	c-7-55.7,36.5-57.9,27.6-4.1C715.6,1439.3,706.6,1419.8,725.7,1410.3z"/>
<path class="st94" d="M854.3,1522.4c11.8-29.2,39.2-72.2,55.6-22.8c-9,29.5,13.5,35.1,27.7,50.6
	C916.7,1543.3,767.4,1552,854.3,1522.4z"/>
<path class="st95" d="M973.4,1558.1c-5.7-32.1-72.2-122.6,4.8-82.2c19.1,11.9,20.3,45.8,45.6,45.3
	C1057.1,1540.3,986.8,1552.3,973.4,1558.1z"/>
<path class="st96" d="M829.5,1538.5c-8.3,10.1-39.6,0.2-55.7,3c1.6-14.5,12.1-23.3,18.7-35.7c4.3-14.5,26.8-12.3,25.9,2.9
	C814.7,1521.9,823.7,1529.4,829.5,1538.5z"/>
<path class="st97" d="M1033.7,1534.9c-65.3-47.2,71.4-24.4,31.7,12.5C1049.6,1559,1047.8,1532.8,1033.7,1534.9z"/>
<path class="st0" d="M1049,1546.2c27.6-4.1,26.3,24.8,12.7,40.1C1060,1572.1,1060.6,1557.2,1049,1546.2z"/>
<path class="st98" d="M1073.5,1538.5c-17.5-13.1-36.2-23.8-57.1-30.2c-30.6-33.3,24.6-109.7,22.9-43.2c36.4-66.9-37.2,4.4-25.4-61.1
	C1018.6,1209,1107.6,1483,1073.5,1538.5z"/>
<path class="st99" d="M693.5,1414.6c-1.5,42.1,9.6,97.3-39.7,115.7c-13.2-22.3,26.8-53.1,19.5-86.8c2.4-15.8-20.5-22.9-23.7-5.4
	c-43.4,37.3-39-164.4-18.1-201c12.7-15.3-4.8-73.4,29-54.7c24.2,22.6,42.1,7,43.1,31.5C701.6,1282.5,742.2,1354,693.5,1414.6z"/>
<path class="st100" d="M648.8,1442.2c31.5-35.5,17.6,58,1.2,23.8C649.2,1458.1,649.2,1450.2,648.8,1442.2z"/>
<path class="st40" d="M929.4,1590.4c-20.2,8.6-39.4,9.3-55.9-8C893.4,1576.3,911.4,1583.5,929.4,1590.4z"/>
<path class="st101" d="M1510.2,616.5c0.7,22.8,6.3,45.5,11.4,67.5c4.1,25.7,42.1,16.2,31.2-8.7c-21.5-36.9,7.3-81.7-31.4-108.1
	C1523.7,595.2,1504.1,577.4,1510.2,616.5z"/>
<path class="st102" d="M1525.8,654c7.3,57.8,23.4,30.3,55.9,68.6c7,20.4-14,27-26.6,13.4c-21.5-6.7-23.4-5.4-24.2,16.6
	c1.5,42.7-51,17.7-36.8-19.9C1499.2,674.8,1472.9,683.1,1525.8,654z"/>
<path class="st103" d="M1577.6,738.3c-2.7-34.1,48.7-42,36.6-2.2c-8.1,9.6-2.1,14.9-0.3,22.2C1595.8,771.1,1583,755.4,1577.6,738.3z
	"/>
<path class="st104" d="M1521.2,582.6c-4.4-38.9-131.7-149-97.9-61.3c19.3,30.1-37,43.2-5,86C1497.7,595.4,1516.6,660.3,1521.2,582.6
	z"/>
<path class="st105" d="M1409.2,470.6c-25.2-0.9-82.5-7.3-91,22.2c22.8,26.4-17.2,33.4-11,55.3c3.2,4,7.6,5.9,12.4,4.9
	c23.9-6.7,37.4,17.8,60.2,11.8c24.4-10.3,41.6-24.8,37.8-55.2C1411.4,486,1437.9,485.7,1409.2,470.6z"/>
<path class="st106" d="M1097.5,1206.8c-28.2-6.6-55-21.7-63.5,16.6c-28.4,57.1-30.7-83.5-60.7,86.6c-42.7,4.3-52.3-11.6-42.4,48.2
	c-11.2,19.5,10.4,29.9-10.3,48.5c-8.8,6.1-17.2-4.6-16.8-12.5c-52.5-117.8,20-174.7-30.8-169.6c-37.3-31.5,92-156.5,107-95.2
	c-29.5,29.1-47.7,68.1-46.1,110.1c26.8-11.5,22.3-123.8,60.3-102.5c41.4,60.4,109.9,23.9,128.9,80.5
	C1110.9,1222.6,1108.1,1205.5,1097.5,1206.8z"/>
<path class="st107" d="M1009.2,1258.2c21.7-8.5,63.5-62,79.6-22.7c2.3,13,2.3,26.1-16.5,27.4
	C1052.3,1265.2,1021.8,1283,1009.2,1258.2z"/>
<path class="st108" d="M1026.4,1350.2c1.1,20.2-27.5,105.3-35.5,44.8c-6.6-29.9,7.5-57.8-4.4-86.8c-7.5-29.4,26.5-58.9,25.5-19.3
	C1011.7,1323.2,1040.2,1309.6,1026.4,1350.2z"/>
<path class="st109" d="M973.8,1258.6c8.7-26.6,14.7-54.4,33.4-77.7c13.2,18.1-4.7,43.9,17.7,57.4
	C1002.8,1236.2,995.3,1272.8,973.8,1258.6z"/>
<path class="st110" d="M973.8,1258.6c39.1-19.6,24.6,29.5,19.9,51.5C961.7,1336.2,962.3,1275.8,973.8,1258.6z"/>
<path class="st111" d="M1021.2,1314c-30.6-1.6-17-37.4-12-55.9C1029.4,1263,1024.8,1298.4,1021.2,1314z"/>
<path class="st112" d="M1026.4,1350.2c-8-26.5,12.7-62.6,15-15.5C1032.2,1335.8,1030.2,1343.9,1026.4,1350.2z"/>
<path class="st57" d="M1097.5,1206.8c21.6,1.9,31.5,15,28.1,35.6C1109.7,1235.6,1114.3,1212.8,1097.5,1206.8z"/>
<path class="st108" d="M1025.1,1298.6c-5-12-13.9-40.6,8.3-28.3C1021.8,1277.1,1027,1288.9,1025.1,1298.6z"/>
<path class="st113" d="M1125.1,1218.9c-34.2-43.2-102.6-20.7-131.8-76.4c-10.7-17.7-28.8-28.4-47.8-36
	c27.1-23.5,45.8,24.6,65.8,36.9c48.4,37.6,96.5,22.3,142.2,82.9C1141.5,1228.9,1135.4,1222.3,1125.1,1218.9z"/>
<path class="st114" d="M1613,762.6c42.6,102.9-18.4,154.3,28.2,247.8c-4.4,18.6,0.9,39.2-12,56c-33.4,32.2-56.8-36.5-63-61.3
	c-8.8-33.9,12.9-65.2,4.7-97.6c-5.2-22.7,10.5-42.7,14.1-63.9C1599,826.3,1592.9,759.3,1613,762.6z"/>
<path class="st115" d="M1577.4,950.5c-13.2,34.8,9.1,123,51.9,115.9c39,97.1-43.1,58.2-36.7,97.2c16.4,30.4-23.6,54.5-26.9,17.1
	c-5.1-62.8-58.9,1.9-67.6-24.4c-6.9-23.4-20-105,26.6-77.3C1564.7,1079.3,1527.8,945.9,1577.4,950.5z"/>
<path class="st116" d="M1629.4,1130.4c-97.9,4.2-24.6,23.8-48.6,83.5C1588.7,1542.4,1653.4,1304,1629.4,1130.4z"/>
<path class="st117" d="M1613,762.6c-7,21.5-2.2,105.2-41.3,76.8c-4.3-8.3-4.1-18.5-2-25.8c8-19.4-14.7-26.7-9.6-43.8
	C1563.3,757.1,1612.6,747.3,1613,762.6z"/>
<path class="st118" d="M1597.4,1362.2c-23.9-73-53.3,55.7-77,71.6c-11.6,18.6,6,39.6-2.7,59.9c15.7-16.5,30.5-33.8,44.4-51.9
	c-0.3-4.2,5-21.9,9.3-12.4C1585,1408,1609.2,1389,1597.4,1362.2z"/>
<path class="st119" d="M1573.2,1413.9c-22.7-43.9-13.9,23.6-20.3,39.6C1558.4,1441.8,1583.9,1426.3,1573.2,1413.9z"/>
<path class="st120" d="M1525.3,1446.6c-12.4-4.5-11.2,13.6-19,12.6c-18.1-1.3-32.5,14.1-37,27.7c26.8,31.9-1.6,24.1,9.2,44.9
	C1502.9,1507.8,1540.2,1485.7,1525.3,1446.6z"/>
<path class="st121" d="M1485.4,1502.7c-15-21.4-39.3,28.3-16.2,37.4C1478.2,1525.2,1522.5,1505.5,1485.4,1502.7z"/>
<path class="st122" d="M1512.4,1481.2c14.5-21.3,63.1-177.6,2.9-170.8c-56.6,12.7-12.8-67-60.6-38c-18.6,26.6-30.4-47.4-20.1-54.8
	c11.1-17.5,18-38.4,34.2-52.6c18.2-22.5-26.5-70.1-31.6-27.6c4.5,41.7-54.9-1.7-41.2,46.8c20.9,32.3-2.6,94.7,14.6,133.6
	c18.1,36.6-33.2,20.7-36.7,48.8c-22.9,61.9-97.3,102-81.8,176.7c44,66.4,38.8-137.9,77.4,59.1c59.6,4,14.6-92.9,34.6-128.5
	c2.7,84.7,51.3-1.1,47.7-38.8c-0.1-32.6,8.4-47.2,33.9-55.5c6,27.2-42.5,84-12.6,102.9C1485.9,1479.1,1497.6,1458.2,1512.4,1481.2z"
	/>
<path class="st123" d="M1497,1360.9c-16.9-11-22.2,13-34.5,18.6c-33.2,12.8-11.4,111.8-48.9,122.4c8.7-15.7-8.9-29.1,0-44.3
	c9.7-16.3-14.3-19.7-14.8-4.8c-7,33.7-30.7,178.5,22.2,124.5c-1.9-12.9-7.8-30.7,13.8-35.9c16.9-33.8,42.5-35.6,39-74.6
	C1472.9,1442.8,1515.2,1367.7,1497,1360.9z"/>
<path class="st124" d="M1365.1,1542.9c3.7,39,25.3,67.8-32,59.6c-26.1-16.8-9.7-103.4,14.6-47.6
	C1340.1,1542.2,1357.1,1525.1,1365.1,1542.9z"/>
<path class="st125" d="M1435.7,1541.2c-24-37.8-32.4,23.4-24,43.5C1431.3,1572.7,1441.9,1565.5,1435.7,1541.2z"/>
<path class="st126" d="M1462.1,1496.8c-33.7,7.4-29.9,44.7-26.5,70.5C1457.4,1554,1489.9,1515,1462.1,1496.8z"/>
<path class="st123" d="M1433.6,1538.3c-4.6,10.8-3.8,21.6-2.4,32.3C1445.9,1564.4,1437,1550,1433.6,1538.3z"/>
<path class="st127" d="M1409.4,1210.5c7.1,26.4-5.9,46.2-4.7,72.9c-2.6,28.4-44.6,26.2-41.2-3.1c-5.8-26,20.8-163-31.1-122.2
	c-81.8,48.8,35.2-138.9-19-113.8c-23.8,22.3-60.6-76.7-64.1-97.7c-12.6-33.5-9.1-81.8-50.8-93.8c-10.7-26,32-70.8,48.9-42
	c11.2,44,7.1,90,18.3,135.8c1.1,17.9,28.6,21.7,28.4,1c15.6-29.6,14.2-18.5,42.1-20.9c18-7,23.4-3.9,25.6,15.5
	c21.1,38.2-2.3,85.7,23,105.7c19.5,14.7,8.4,54.2,17.9,77.1C1400.2,1157.8,1377.8,1186.2,1409.4,1210.5z"/>
<path class="st128" d="M1205.3,882.4c-27.8,41.4-6.5-54.7-108.5,35.2c-19.5-1.6-28.8,32.4-43.3,24.8c-3.5-73.8,115.1-106,47.7-178.3
	c-19.8-6.6-18.6-29.5,10.1-27.4c-41.6-20.4-37.9,20.1-71.4,7.6c-58.3,0.1-32,2.8-66.1-47.3c-50.7-67.5,135.4-97.9,97.7-35
	c-21.4,21.5-20.1,34,10.3,22.9c20.8,13,50.2,8.1,65.9,31.4c12.3,18.5,26.9,9.4,42,30.7c5.8,27,48.3,68.1-6.4,64.1
	C1148.6,826.1,1240.9,854.4,1205.3,882.4z"/>
<path class="st129" d="M1117.4,850.4c-30.6,22.7-16.1-7.9-12.4-24.7c4.9-33.8-22.1-25.6-43.5-31.4c-61.6-29.1-99.6,36.6-149.2,50.2
	c-14.5-58.9,81.6-47.9,89-106.2c16.5-1.4,31.9-13.2,49.9-2.7c5.1,3,15.8-0.8,19.7-6.6c5.6-8.2-8.3-10.6-8-22
	c27.6,3.7,46.4,23.1,71.1,35.1c-13.6,8.1-27.5-2.4-38.5,6.5c11.8,9,26.8,10.1,41.4,14.6C1083.5,784.5,1160.6,795.7,1117.4,850.4z"/>
<path class="st130" d="M1057.5,945.9c1.1-24,7.5-30.2,36.4-35.3c20.8,20.7-17.6,46.6,35,74.2c32.8,34.6,92.7,61.2,21.2,94.7
	c-56.2,13.3-30.7-83.1-75.2-105.1C1065.6,967.8,1061.7,956.3,1057.5,945.9z"/>
<path class="st131" d="M766.1,1090.5c27.2,65.2,51.3-55.8,73.7-34.9c65,65.3-100.3,105.8-55,121c22.5-8,46.5,1,68.9-6.3
	c0,29.1-59.5,17.1-80.2,17c-7.9,0.3-17.4,9.3-23.3-1.1C733.2,1171.1,737.2,1091.1,766.1,1090.5z"/>
<path class="st132" d="M822.8,917.2c139.8,265.3,28.8,47.3-11.8,101.9c-0.8,8.5,8.6,34-15.7,11.4c-2.9-2.7-7-2.2-8,1.9
	c-86.6,64.3-63.2-107.5,48.7-45.7C824.7,968.6,799.3,933.8,822.8,917.2z"/>
<path class="st133" d="M1293.6,1490.7c-3.2-68,147.8-345.4-28-260.2C1439.5,1057.9,1355.9,1419.9,1293.6,1490.7z"/>
<path class="st134" d="M1365.1,1542.9c-27-8.7-5.6,22.5-16.4,36.4c-4.1-12.8-1.3-32.8-16.7-33.7c-15,8.5,20.6,64.7-18,64.8
	c-23.6-10.3,8.3-54.3-26.9-48.9c-29.3,3.8,10-75.7,11-35.1c0.7,27.8,24.2,32.1,19.3,1.3C1336.4,1472,1363,1492.9,1365.1,1542.9z"/>
<path class="st135" d="M1365.8,1218.8c0-78.9-122.1,42.6-109.3,4.3c26.1-31.3,25.4-73,41.9-108.1c23.5-24.4-46.1-90.3-16.2-92.1
	c35.8,41.4,46.5,76.4,21.4,129.7C1289.3,1183.5,1400.8,1150.4,1365.8,1218.8z"/>
<path class="st136" d="M1173.2,1023.4c-159.6-61.1-19.9-177.5-7.1-101.5C1110.6,939.8,1146.7,995,1173.2,1023.4z"/>
<path class="st137" d="M1309.3,1090.4c3.1-22.6-82.6-126.1-27.4-87.1c24.7,62.1,12.7,33.7,51.1,11.7c8.3,8.6,10.1,47.4-0.8,58
	c-7.3,9,5.5,26.1-10.6,33.5C1311.3,1105.8,1305.7,1101.6,1309.3,1090.4z"/>
<path class="st138" d="M1061.5,794.3c65.3-5.9,58.5,17.8,43.3,68.1c-14.5,29.5-56.3,40.5-51.5,80.1
	C1028.5,894.6,1154.8,817.4,1061.5,794.3z"/>
<path class="st139" d="M1168.5,1128.1c23.6-16.2,42.8-30.5,63.2-42.8c32.7-8.9,3.2,51.4-13.8,52.5c-2.7,0.9-6.2,1.4-6.7-1.6
	C1203.4,1101.1,1188.4,1135.4,1168.5,1128.1z"/>
<path class="st129" d="M1166.1,921.9c-52.6-52.8-82.6,30.1-44.5,72.6c-45.6-26.3-38.8-102.3,15.5-105.8
	C1161.2,877.3,1212.7,919.5,1166.1,921.9z"/>
<path class="st140" d="M989.5,990.5c22.7,1.3,1.9,39.6-13.1,29.9c-22.6-13-19.1,18.5-34.6,13.5c-5-3.3-1.8-8.2-0.3-12.6
	c2.1-37.4,64.3-41.8,36.6-23.2C981.3,994.6,985.9,993.3,989.5,990.5z"/>
<path class="st141" d="M781.5,1182.4c45.8,7.6,88.3-21.6,124.2-27.7c-22.6,27.4-68.3,73.3-100.8,38.8
	C797.4,1190.3,774,1197.6,781.5,1182.4z"/>
<path class="st142" d="M905.7,1154.6c-95.8,51.4,19.3-26.9,39.8-48.1c23.5,2.1,38.5,15.4,47.9,36.1
	C942.8,1094.2,950.4,1124.6,905.7,1154.6z"/>
<path class="st143" d="M876.7,859.3c-21.5,15-53.2,32.6-55.4,59.4c-16.5-5.1-19.9-26.4-6.2-39c18.5-10.2,28.4-29.4,46.1-40.8
	C877.5,821.5,900.9,852.7,876.7,859.3z"/>
<path class="st144" d="M876.7,859.3c45.5-38.4,22.6,62.8,3.2,63.5c-4.8-15.3,16.7-38.3-9.7-13.5
	C872.2,892.1,885.8,876.8,876.7,859.3z"/>
<path class="st145" d="M766.1,1090.5c-35.8,58.4-93-54.5-30.8-30C751.9,1073.2,767.2,1066,766.1,1090.5z"/>
<path class="st146" d="M1205.3,882.4c-7.6-65.4,32.7-26.3,32.5,15.8C1225.6,888.9,1224,867.3,1205.3,882.4z"/>
<path class="st132" d="M749.9,1069.9c-37.9-0.7-33.4-51,12.1-22.9C758.6,1054.9,742.2,1056,749.9,1069.9z"/>
<path class="st147" d="M913.5,841.9c8.1-2.2,14.9-8.4,24-7.5C904.7,887.2,880.1,837,913.5,841.9z"/>
<path class="st148" d="M1297.4,1514.4c-20.8,17.7,8.4-67.2,10.2-58.6C1313.3,1467.4,1297.8,1498.1,1297.4,1514.4z"/>
<path class="st146" d="M1237.7,898.4c1.9,16.5,13.2,30.7,11.4,48.1C1241.9,931.3,1234.3,916.2,1237.7,898.4z"/>
<path class="st135" d="M1266.1,994.2c0.1,33-8.3-5.8-8.7-19.8C1264.9,979,1264.9,986.8,1266.1,994.2z"/>
<path class="st129" d="M1193.9,895.5c-0.1,6.4-2.6,11.6-7.6,15.5C1174.3,906.1,1187.4,885.3,1193.9,895.5z"/>
<path class="st149" d="M1305.3,1578.5c16.1,13.7,5.4,49.5-9.8,23.8C1295.5,1594.7,1292.6,1567,1305.3,1578.5z"/>
<path class="st22" d="M1365.8,467c-9.5,18.1-58.7,14.2-32.8,41.7c8.9,15.4-22,23.5-23.2,38.3c2.5,4.4,1.5,7.2-3.7,8.1
	c-40,24.7-19.2-3.2-40.6-20.3c16.3-2.5,30.3,16.1,38.8-6.5c6.3-13.4,14.5-23.4,10.1-39.8C1312.3,466.2,1350.1,468.2,1365.8,467z"/>
<path class="st150" d="M1033.6,634.2c-39.8-11.5-171.9,71.3-158.4,9.2c9.5-20.9-9.9-42.7,3.4-60.5
	C923.9,537.7,1079.3,539.7,1033.6,634.2z"/>
<path class="st151" d="M1037.3,574.6c-46.9-9.1-116.3-19.2-155.4,11.9c-5-9.9,12.2-48.4,26-47.8c37.9-20.3,60.7,39.4,89.3,1.2
	c0-11.8-6.2-50.4,18-32.1c15,10.5,52.9,2.1,58.6,24.5c-2.3,13.7-27.4-1-28.4,14.5c2.1,16.1,30.7-1.1,30.8,15.1
	C1072.9,577.5,1047.9,565.8,1037.3,574.6z"/>
<path class="st152" d="M1273.6,610.2c29.3,51.4,14.3-4.2,27.4-31.8c10.8-2.2,16.7,5.4,14.9,13C1317,963.4,1210.4,645.1,1273.6,610.2
	z"/>
<path class="st151" d="M1033.6,634.2c-2.7-20.7,0.1-69.2,11.3-25.2c4,21.8,43.9,8.6,30.5-9.5c-10.2-15.9,21.5-23.3,25.1-8.5
	c13.5,40.1,100.2,28.8,133.7,22.5c33.1-7-0.5,21.5-14.2,21.3c-36.4,9.9-86.4,4.9-115.2-0.3c14,2-1.1,22.8-14,18.5
	C1072.6,642.9,1053.4,641.5,1033.6,634.2z"/>
<path class="st153" d="M1305.6,646.9c-26.2-161.6,92.4-116.3,41.1-28.7C1333.6,627.8,1328.4,665.4,1305.6,646.9z"/>
<path class="st154" d="M1093.5,642.5c24.8-4.1-5-8.7-11.9-13.6c60.7,0.7,123.3,8.6,179.5-18.9C1265.7,671,1124.6,684.6,1093.5,642.5
	z"/>
<path class="st151" d="M1265,610.8c-18.8-63.6-114.7-16.5-164.9-40.2c33-14,60.6,4.1,91.7-12.3C1221,538.1,1309.6,584,1265,610.8z"
	/>
<path class="st76" d="M997.3,518.7c59.2,23-75.6,57.7-34.9,3.5C974.3,522.6,985.3,521.2,997.3,518.7z"/>
<path class="st155" d="M988.5,519.1c-0.2,8.5,3.1,20.9-9.3,21.9C960.3,541,967.2,503.2,988.5,519.1z"/>
<path class="st156" d="M909.2,546.3c-54.7,9.1-5.6,71.8-22.2,97.3c-7.4,8.4,2.2,17.9,6.7,26.3c7.9-4.4,13.7-0.7,15.2,6.5
	c5.8,27.8,17.1,55.4,5.4,84.4c-8.4,22,18.2,44.5-0.7,64.2c-7.3,15.6-4.9,40.2-32.4,29.5c-27.3-87.5,22.5-204.3-79.6-262.2
	c-23-5.8-17.8,31.9-40.8,27.5c-46.6-56.7,68.8-36.5,44.3-81c10.4-25.6,25.3,1.8,42.8-17c8.6,17.5-9.6,31-1.6,34.3
	c49.6,3.6,22.5-42,37.5-41.3C906.6,496.8,921.9,525.4,909.2,546.3z"/>
<path class="st157" d="M909.2,546.3c-24.9-16.1,0-37.5,20-32.1c12.8,9.8,28.4-5.4,41.1,4.7c-25.5,34.5,18.3,28.6,39.1,19.6
	C975.3,584.7,953.1,537.8,909.2,546.3z"/>
<path class="st90" d="M741.6,510.5c-12.2-4.3-0.5-13.6-0.1,0.1L741.6,510.5z"/>
<path class="st99" d="M593.7,1286.6c5.6,3.8,7.6,9.4,7.8,15.8C595.9,1298.6,593.7,1293.1,593.7,1286.6z"/>
<path class="st158" d="M709.5,1322.3c-22.2-50,12.6-120.1-58.6-134c-7.3-3.5-4.4,15.2-13.6,18.3c-50.5-54,15.6-143.5,23.4-42.4
	c76.4,45.7,78.6,35.1,59.7,121.7C721.3,1298.6,725.6,1314,709.5,1322.3z"/>
<path class="st159" d="M657.6,886.4c22.6-15.4,12-41.2,18.2-61.8c14.2,2.6,2.1,57.1,5.9,73.5c-34.6,16.2,7.2,230.4-56.5,188.3
	C658.8,1023.4,613.5,943.3,657.6,886.4z"/>
<path class="st160" d="M637.7,1126.3c-10.9,10.8-3.4,24.4-20.2,40.2C563.7,1144.4,651.5,1041.8,637.7,1126.3z"/>
<path class="st80" d="M633.9,978.3c11.3,7.9,8.1,17.7,3.6,27.7C630.8,997.6,636.6,987.4,633.9,978.3z"/>
<path class="st83" d="M657.5,886.5c0,7.8-4.7,11.2-11.8,12.2C647.8,892.6,651.5,888.8,657.5,886.5z"/>
<path class="st161" d="M761.2,614.6c72-102.7,37.4,49.8,42.2,92.3c2.6,37.3-35.7-5.9-32.2,32.7c0,16.8-4.9,29.7-20.9,37
	c-20.5,11.4,6,41-16.8,53.9c-27.8-64.3,44.3-106.1-8.2-119.9C719.8,676.6,718.7,623.3,761.2,614.6z"/>
<path class="st162" d="M725.5,710.6c15.3,65.7-43,123.5-45.6,56.2C683.7,727.1,679.5,693.9,725.5,710.6z"/>
<path class="st163" d="M637.7,690.9c12.1-2.8,11.6,13.6,21.5,18.7c13.6,7.9,9.3,32.1-3.5,38.4C624.1,748.3,621.7,713.2,637.7,690.9z
	"/>
<path class="st161" d="M753.6,586.6c12.6,4,4.1,27.3-8.1,32C747.3,607.8,737.3,593.9,753.6,586.6z"/>
<path class="st164" d="M733.6,830.5c-6.2-34.9,11.6-102.9,37.3-36.6c-1.1,38.8,36,21.4,31.8,55.2c-13.2,52,24.4,70.1-25.6,89.6
	c-27.2,19.5-66.4-5.7-39.2-36.3C754.1,878.5,731.8,856.4,733.6,830.5z"/>
<path class="st165" d="M653.3,962.4c-4.4-31.5,12.1-56.4,22.5-83.9c6.7,26.4,29.9,90.9,4.4,109.4
	C663.3,987.9,652.2,981.6,653.3,962.4z"/>
<path class="st166" d="M737.6,862.5c48.6,32-21.4,46.4,12.1,80c19.3,17-17,21.3-24.6,11.1c-17.1-23.7,3.5-37.4-3.6-66.4
	C718.7,860.8,740.2,900,737.6,862.5z"/>
<path class="st167" d="M680.5,982.4c-4.6-11.9,10.6-17.2,9.5-27.9c12.1,15.7,23.6,6,35.1-0.8C771.6,978.7,689.3,1020.2,680.5,982.4z
	"/>
<path class="st168" d="M810,1198.1c26.3,2.3,47.6-13.4,71.4-19.8c-15.4,63.7,19.2,135.2-0.3,196.7c-42.9,2.5-23.4-51.6-71.6-5.7
	c-35.5-8.4,7.8-121.4,30.7-137.3C815.5,1256.4,818.3,1212.7,810,1198.1z"/>
<path class="st169" d="M817.3,1226.4c19.3,24.9,10.9-9.2,26.2-15.1c29.6-18.1-14.2,44.5-16.3,57.1c-51,112.7,39.9,155.5-13.1,179.5
	C747.1,1386.7,779.2,1290.2,817.3,1226.4z"/>
<path class="st170" d="M693.5,1414.6c-1.6-31,22.5-56.3,20.1-87.9c6.4-16.8-8.7-65.6,19.1-62.5c25.1-17.5-18,270.8-31.7,208.1
	C697.1,1447.9,713.7,1438.7,693.5,1414.6z"/>
<path class="st171" d="M726,1378.4c-4.5-20.2,23.2-107.8,2.8-107.3c-20.1,7-5.2,39.9-15.2,55.7c-9-39.6,11.7-84.2,8.2-124.1
	C776.3,1145.7,749.2,1358.3,726,1378.4z"/>
<path class="st172" d="M785.1,1398.7c1.7-4.3,4.2-13.7,7.9-2.7c7.2,28.2,61,88.5,16.5,102.4c-46.3,53.3-17.7,8.8-32.1-27.9
	C756.6,1448.4,784.8,1422.9,785.1,1398.7z"/>
<path class="st173" d="M725.7,1098.3c88.1-10.5-49.5,79.8,79,95.1C735.6,1211.8,707,1165.3,725.7,1098.3z"/>
<path class="st174" d="M809.4,1249.4c-12.1,9.9-37.5,128.1-36,85.1c2.3-22.9,9.1-45,8.8-68.5C781.9,1248,801.1,1256.4,809.4,1249.4z
	"/>
<path class="st175" d="M773.4,1334.4c3,25.9,26,77.5,4.7,96.3C775.9,1400.8,762.3,1365.5,773.4,1334.4z"/>
<path class="st176" d="M777,1422.6c7.5,16.6-6.1,80.8-15.5,36.7C763.9,1446.2,762.1,1430.7,777,1422.6z"/>
<path class="st177" d="M729.9,1166.8c16.3,4.9,16.1,25.4,30.5,32C740.8,1210.1,703.4,1184.5,729.9,1166.8z"/>
<path class="st178" d="M813,1454.5c-7.8-18.1,21.9-14.9,4.7-46c-7.6-21.9-19.8-71.8,18.4-69.3c8.6,1.5,8.2-12.1,20.2-21.7
	c-16.8,45.2,31.4,46.4,42.2,73.2c13.2,35.4,7.2,48.9,49.6,42.9c27.5,31.6,24.3-11.8,48.2-7.3c12.5,0.7,23.9,100.2,4.8,91.7
	c-27.3-34.7-28.3-36.4-68-51c-38.5-6.2-60.4-60.1-91.4-10.2C826.5,1476.1,826.3,1456.5,813,1454.5z"/>
<path class="st179" d="M829.3,1462.4c6-12.8-0.7-35.3,20.6-25.3c-1.8-73,53.6,23.6,83.4,29.9c-10.7,1.8-19.2,4.7-28.5-8
	c-17.3-20.5-67.3-4.3-53.7,25.7C865,1579.2,819.8,1489.9,829.3,1462.4z"/>
<path class="st180" d="M829.3,1462.4c8.3,15.1,46.2,86.1,4.5,72.4c-13.5,0.8-15.9-9.1-16.7-18.8c2.1-9.2-9.6-17.8-3.1-25.3
	C828.2,1479.2,800.1,1430.6,829.3,1462.4z"/>
<path class="st172" d="M813.9,1498.4c35.5,49.6-4.1,56-4.5,0.1C810.9,1495.7,812.4,1495.7,813.9,1498.4z"/>
<path class="st181" d="M1001.2,1518.1c5.3-51.2-24-87.8,11.2-134.8c20-13.2,3.3,38.5,13.6,47.2c3,3.5,7,6.7,2.9,11.9
	c-24.2,23-1.8,56.1-7.4,84.5C1006.8,1541.9,1003.6,1530.9,1001.2,1518.1z"/>
<path class="st182" d="M1028.9,1442.4c-2-46.4,54.7-34.4,26.7,14.1c-16.8,9.6,3,32-11.9,38
	C1023.4,1487.9,1040.9,1456.9,1028.9,1442.4z"/>
<path class="st183" d="M1425.3,602.8c19.5,3.2,42.7-31.6,54.4-10.4c21.8,33.6,43.8,7,46.1,61.7c6,32.1-39,19.2-24,36.4
	c-5.4,137.9-74.2,32.4-40.4,9.5C1497.1,608.8,1409.1,650.3,1425.3,602.8z"/>
<path class="st184" d="M1473.6,754.2c29.7-12.9,3.4-52.1,28.3-63.8c4.8,86.8-22.6,53.1,48.7,96c8.6,16.9-15.5,23.6-10.6,41.6
	c-20,17.1-28.1,20.9-5.1,39.6c60.3,54.9-25.1,54.5-2,126.4c12.8-17.1,2.5-39.9,20.1-55.3c18.4-60.2,34.6-33.1,24.5,11.8
	c-43.4,45.4-6.7,93.3-42.6,156.7c-15.7,18.8-13.7-51.4-33-20.6c-21.2-14.8,2.8-38.8-39.8-50c-45.5,106.6-22.7-175.6-28.4-201.2
	C1403,806.6,1434.6,740.5,1473.6,754.2z"/>
<path class="st185" d="M1586,762.7c-74.5,62.2-94.3-78.1-24.7-35.9C1553.8,749.8,1588.3,743.5,1586,762.7z"/>
<path class="st186" d="M1586,762.7c-17,0.6-40.5-20.5-24.7-35.9C1567.5,746.4,1616,729.9,1586,762.7z"/>
<path class="st185" d="M1517.3,770.4c-13.3,3.7-16.1-15.2-4.8-15.3C1520.1,756.5,1516.5,764.9,1517.3,770.4z"/>
<path class="st187" d="M1425.3,602.8c20.6,44.9-74.3-4.8-35.1,80.4c0.6,10.4-8.9,14.9-13.1,22.6c-17.3,15.4-31.6-4.4-48.9-6.7
	c-24.6-17-3.2-40.6-2.2-60.8C1339.2,607.8,1389.7,575.8,1425.3,602.8z"/>
<path class="st188" d="M1421.7,602.2c-48.4-4-28.1-8-40.5-44.1c13.9-13.1,32.9-22.4,24.2-48.5c-2.4-7.1,7.3-18.7,10.5-28.7
	c1.6-4.9,6.4-0.1,9.4,2.1c1.7,13.5-3,28.2,16.7,35.8C1460,537.4,1404,566.8,1421.7,602.2z"/>
<path class="st189" d="M1369.4,602.5c8.4,20.3-23.8,36.7-27.9,12.2c10.7-17.7,0.2-43.9,20-56.7
	C1403.7,552.4,1375.1,582,1369.4,602.5z"/>
<path class="st190" d="M925.5,1442.4c-71.6,5.7-60.4-313.7-21.6-223.5c13.1,29.6-37.8,59.5,3.8,79.5
	C858.5,1319.5,944.1,1407.8,925.5,1442.4z"/>
<path class="st191" d="M977.3,1130.5c12.2,16.3,0.7,41.1-11.2,55.6c-15.2,16.2,5,47.1-17.8,56.9
	C917.7,1339.2,909.8,1126.7,977.3,1130.5z"/>
<path class="st192" d="M925.5,1442.4c-20.3-53.1,11.8-35.4-0.3-55.9C928.8,1178.7,1049.3,1385.1,925.5,1442.4z"/>
<path class="st193" d="M941.4,1306.5c-0.1,17.3,13.9,52.9-15.8,51.8C912.8,1341.9,906.6,1274.9,941.4,1306.5z"/>
<path class="st178" d="M925.2,1386.5c15.7-11.5,14.9,7.1,17.2,11.8C951.3,1408.8,900.7,1415.8,925.2,1386.5z"/>
<path class="st142" d="M993.3,1142.5c4.5,2.6,7.2,6.5,8.3,11.6C995.6,1152.6,993.9,1147.9,993.3,1142.5z"/>
<path class="st178" d="M949.6,1418.2c24.3-57.4,40.8-92.3,48.1-4.4C989.1,1431.5,955.4,1448.3,949.6,1418.2z"/>
<path class="st194" d="M993.3,1362.6c-11.9-3.8-15.5,8.7-23.8,12C963.3,1269.8,1023,1310.1,993.3,1362.6z"/>
<path class="st195" d="M993.8,1394.5c-27.6-17.4,13.1-40.9,2.2,2.8C995.2,1396.4,994.5,1395.4,993.8,1394.5z"/>
<path class="st181" d="M993.8,1394.5c6.7-1.8,1.9,11.9,3.3,16.7C990.6,1406.7,992.9,1400.5,993.8,1394.5z"/>
<path class="st196" d="M1537.3,826.6c-21.3-8.5-13.3-28.7,8.2-24.3c15.7,5.7,5.6,25.3,15.8,35.6c5.4,22.6,16.8,44.6,16,68.5
	c-12.8-0.5-16.7,27.8-28,8C1553.5,890.3,1505.6,872,1537.3,826.6z"/>
<path class="st197" d="M1577,894.9c-22.8-21.3-39.2-73,11.8-51.9C1580.4,859,1585.9,877.7,1577,894.9z"/>
<path class="st198" d="M1585.4,866.5c-14.4-10-9.8-17.3,3.3-23.5C1590.3,850.7,1589.8,859.5,1585.4,866.5z"/>
<path class="st199" d="M1529.5,1438.5c34.7-219.8-61.4-53.5-58.3-144c-4.9-27.2,24.6-19.9,21.3-38.7c0.6-41,40.2-51.1,20.9-101.2
	c10.3-28.4,64.2-15.4,53.9,18.7c-4.3,13.6-1.2,26.3,6.3,36.9c17.5,32.9-5.2,72,18,105.4c17.7,35.2-19.7,23-25.5,49.8
	C1555,1390.2,1548.5,1417.6,1529.5,1438.5z"/>
<path class="st200" d="M1449.2,1058.6c8-13.7-6.3-46.9,5.7-50.6c11.9,3.6,5.4,30.3,26.5,24.5c29.7-2.9,17.9,35.9,20.4,54
	c-8.2,35.6,13,68.9,13,99.8c-23.3,23.2,7.3,64.5-48.1,42.6c-14.3-20.8-2.9-44.4-5.3-66.4c5.8-19.8-13-35.6-4.5-56.4
	C1464.9,1089.6,1446.3,1073.4,1449.2,1058.6z"/>
<path class="st201" d="M1585.5,1346.4c10.8-27.8-29.8-49.5-14.2-108.6c-0.9-36.6-30.4-18.1-5.8-87.4
	C1583.7,1152.2,1623.6,1407.4,1585.5,1346.4z"/>
<path class="st202" d="M1505.7,1186.4c0.1-47.2,23.1-29.8,19.3,5.5c-0.4,9.9-8.1,19.7,0.7,29.8c3.1,8.9-13.8,12.1-12.5,0.4
	C1497.4,1213,1506.1,1198.7,1505.7,1186.4z"/>
<path class="st203" d="M1577.6,838.6c-20.8,46.4-33.6-47.6-11.6-56.2C1580.5,761.8,1576.9,830.9,1577.6,838.6z"/>
<path class="st196" d="M1565.9,782.4c-4.4,24.8-33.3-1.3-40.4-11.7C1539.5,774.9,1569.6,762.7,1565.9,782.4z"/>
<path class="st204" d="M1577.1,1418.5c-9.6,2.9-18,10-13.3,21.1C1567,1433.2,1579,1424.1,1577.1,1418.5z"/>
<path class="st122" d="M1469.3,1506.6c-8.3-7.5-7.5-15.9,3.5-20.4C1490.3,1490,1486.3,1507.4,1469.3,1506.6z"/>
<path class="st205" d="M1501.1,1506.3c-6.8,7.7-26.4,11.9-15.8-3.5C1490,1484.4,1505.8,1487.4,1501.1,1506.3z"/>
<path class="st206" d="M1449.2,1058.6c5,61.9-53.9,94.3-43.6,123.9c5.3,9.4,13.2,33.4-5.5,25.5c-49.4,11.3,10-81-5.7-135.4
	c-39.9-101.1,1.5-98.9-69.4-187.3c-1.7,22.7-8.1,28.5-30.5,25.5c-20.8-1.1-13.3-15.3-17-37.7c-0.5-23.4-34.5-50-7.8-67.7
	c12.3-8.2,15.1,13.3,28.1,10.1c21-5.6,22.6,22.7,47.8,13.9c23.2,4.4,52.1,8.7,76.2-3.7c15.3-9.5,36.4,14,26.6,27.7
	c-16,59.8,6.1,121.4-6.3,182.4C1440.7,1043.8,1439.8,1053.1,1449.2,1058.6z"/>
<path class="st148" d="M1365.8,1218.8c11.2,8.4-9,114.7,30,62.6c2.9-67.5,16-69,17.8,1.2c1.9,20.1,10.9,62.5-18,65.2
	c-25-0.6-30.4,70.6-89.4,107.2C1326.9,1379.6,1376.6,1303.7,1365.8,1218.8z"/>
<path class="st207" d="M1461.3,1162.5c17.5,16.6,1.9,43.3,12.1,63.5c13.7,9.9,30.6,45.2,4.1,48.4c-20.1-9-17.2,28.1-38.3,22.1
	c-18.7-9.8-9-47.8-19.9-65.8C1414.7,1217.6,1448.4,1170.7,1461.3,1162.5z"/>
<path class="st208" d="M1306.3,1454.9c48.1-47.8,19.4-72.4,50.7-65.5c10.1,2.6,9.1-10,9.3-16.1c5-57.3,51.6-0.3,47.3-90.9
	c5.3,23.1,20,64.7-14.2,71.6C1375.9,1358,1313,1503.9,1306.3,1454.9z"/>
<path class="st209" d="M1401.5,1166.4c2.4-15.3,8.4-28.6,18.3-40.8c21.1-19.6,9.7-48.7,25.4-63.3c21.9,25.8,8.9,50.9,2.3,77.6
	C1437.4,1202.7,1423.7,1162.5,1401.5,1166.4z"/>
<path class="st184" d="M1453.3,1122.5c2.5-17.7-16.5-49.5-4.3-60C1477.2,1072.3,1460.1,1148.6,1453.3,1122.5z"/>
<path class="st209" d="M1409.6,1210.3c-2.7-9.1-4.7-18.3-4.2-27.8C1414.2,1190.6,1422.1,1198.9,1409.6,1210.3z"/>
<path class="st210" d="M1446.3,1332.6c-5.9-1.7-25.6-10.3-12.9-16.1C1442.1,1317.9,1440.9,1327.8,1446.3,1332.6z"/>
<path class="st211" d="M1289.4,874.5c3.8,23.8-17,29.3,20.4,26.3c12.4-7.4-3.7-43.5,13-48.3c21.3,5.4-1.3,46.8,27.7,50.1
	c29.3,26.4,58.6,180.9,42.7,223.9c-11.1-17,9.5-72.3-19.6-66.9c-7.1,1.2-13.7-1.4-10.6-13.1c8.9-39.1-2.3-78.9-13.7-115.4
	c-10.5,10.3-25.1-1.1-35.4,6c-25.2,10.9,13.2,49.5-21.5,40.3c-36-11.3-36.6-10.8-39.1-50.2c-1.2-19.2-13.6-36.2-9.7-56.4
	c-1.5-9.9,11.3-25.2-1.5-30.4c-27.2,1.1-20.2-16.1-1.7-25.2c-52-7-16.3,58.1-63.8,24.5c-37.3-8.2-17.5-54.2,27.3-38.8
	c-23.5-13-35.2-90,5-64.2c17.7,27.1,69.5,31.7,64.4,70.2c-5.9,12.1-10,23.2,8.5,28.4C1297.3,843.7,1269.6,859.5,1289.4,874.5z"/>
<path class="st212" d="M1309.3,1090.4c31,12.6-29.8,103.3,25.8,50.5c48.4-30.5,39.9,50.9,34.5,77.4
	C1352,1111.4,1270.3,1278.4,1309.3,1090.4z"/>
<path class="st148" d="M1382.2,1279.1c-3.5-10.4-3-19.4-0.3-29.6C1391.8,1262.5,1391.8,1263.9,1382.2,1279.1z"/>
<path class="st137" d="M1313.5,1130.5c0-6.6,2.3-12.1,7.7-16.1C1321.3,1121,1319,1126.6,1313.5,1130.5z"/>
<path class="st213" d="M1273.5,806.5c-13.2-31.2-52.2-32.3-69.7-61c-15.2-26.7-11.8,36.5-73.9-32.6c-10.1-19.4-134-4.1-92.5-29.7
	c44.1-86.4,141.7,11.9,201.5-51.3c39.6-37.7,28.6,18.1,26.4,42.8C1261.1,699.4,1298.8,805.4,1273.5,806.5z"/>
<path class="st95" d="M909.7,798.4c-13.6-35.3,6.8-79.1-8.9-117.1c-10.7-16.8-8.1-26.5,11.5-33.4c23.2-13.7,144.4-26.1,73,13.4
	c-14.5,1.6-10.7,7.9-9.1,15.5c22.8,37.4,40.6,81.5-9.6,106.8c-15.5-0.4-21.5-24.6-38.8-17C910.9,770.2,922.4,792.4,909.7,798.4z"/>
<path class="st211" d="M1193.2,893.2c-6.5,2.1-13.7,18.1-19.6,9.4c-19.4-33-31.3,17.6-60.2-7.9c9.4-25,41.3-15.4,59.1-30.7
	C1194.9,845.9,1194.1,878.9,1193.2,893.2z"/>
<path class="st129" d="M1088.9,882.1c4.9-6.9,6.7-16.4,16-19.7C1109,876.6,1096,877,1088.9,882.1z"/>
<path class="st211" d="M1117.4,850.4c4.3,3,12.6,4.1,11.3,11.1C1122,868.4,1117.1,856.2,1117.4,850.4z"/>
<path class="st130" d="M1087.1,893.8c2.7,1.8,3.3,3.9,0.3,5C1084.4,898,1084.7,895.4,1087.1,893.8z"/>
<path class="st214" d="M909.7,798.4c-17.5-90.9,104.2-2.4,29.9-15.3c9.3,26.5-23.4,37.7-27.4,59C901.1,830.7,917.1,812,909.7,798.4z
	"/>
<path class="st128" d="M937.8,802.7c0.8-16.1-22.5-18.4-20.8-37c49.1,22,55.5,12.3,84.3-27.2C1005.8,776,967.1,791,937.8,802.7z"/>
<path class="st215" d="M705.3,990.4c52.4-18.5-2.4-40.1,38.8-39.1c11.9-11.7,23.6-27.5,47.9-23.9c27.7-7.3-11.8-34.4,15.2-57.6
	c9.4-3.3,41.5-1.6,22.6,11.2c-34,13.9-2.6,34.3-8.1,60.9c-4.5,9.6-11,18.4,0.6,28.7c14.6,16.8-14,23.6-25.5,13.3
	c-13.2-10.1-53.7-0.3-23.6,11.8c15.7,19.6-29.5-1.1-30.5,30.8c-2.8,16,16.1,8.9,17.4,19.1c-60.3-9.7,1.9,34-46.5,16.8
	c-23.9,1.3-2.7-26.7-20.3-33.9C689.1,1013.1,692.1,1000.1,705.3,990.4z"/>
<path class="st216" d="M817.6,989.3c7.4-22.4-22.5-12-26.2-26.6c-0.5-9.5,22-16.5,30.2-20.7C831.8,973.8,904,1039.8,817.6,989.3z"/>
<path class="st128" d="M1137.5,902.6c31-32.7,24.2-4.7,48.2-4c2.4,7.6-8.3,22.9-13.7,13.9C1165.9,887.1,1150.9,899,1137.5,902.6z"/>
<path class="st217" d="M989.5,990.5c-0.9,9.5-14.9,23.6-19.7,9.2C972.1,989.8,982,991.2,989.5,990.5z"/>
<path class="st218" d="M836.8,874.5c-51.6-7.3,32.1-46.6,13.4-73.3C822.5,682.6,945.5,804.3,836.8,874.5z"/>
<path class="st219" d="M708.9,1058.3c45,44.3-35.6,83.6-71.2,67.9c-32-57.4,7.2-23.6,10.4-61.3c1-19.6,2.2-39.6,13.5-57.4
	c10.6-16.9-21-28.4-8.3-45.3c7.5,22.3,33.9,19.7,52,28C717.6,1050.7,610,1041.1,708.9,1058.3z"/>
<path class="st220" d="M648.9,1126.7c105.3-55.5,81-38.1,80.1,67.4c-31.3,9.5-45.3-2.3-39.6-33.2c-5.5,28.9-21.4,0-35.5,14
	C632.9,1187.2,656.1,1139.6,648.9,1126.7z"/>
<path class="st157" d="M881.3,586.5c-11.3-21.2-5.2-36.3,16.3-39.9C906.2,565.6,886.8,573.2,881.3,586.5z"/>
<path class="st72" d="M1009.5,538.3c0-5.3,0-10.5,0.1-15.8C1015.6,527.8,1020,533.1,1009.5,538.3z"/>
<path class="st221" d="M1326,638.3c14.1,14.5-5.9,38.4,2.9,56.5c11.7,5.5,8.9,16.5,10,26C1325,826.9,1262.6,645.4,1326,638.3z"/>
<path class="st222" d="M1277.4,806.5c-4.2-18.4-7.2-36.9-4-55.9c19.2,22.1,34-24.6,56.1,9c-4.1,13.1-17.6,16.6-14.8,35.3
	C1317.7,827.5,1289.5,840.3,1277.4,806.5z"/>
<path class="st211" d="M1325.3,762.3c-36.5-26-31.3-40.5-24.2-79.9c-1.5,19.3,13.8,34.5,12.6,54.2c-0.4,7.2,9,10.6,15.6,13.9
	C1334.9,753.9,1332.4,766.5,1325.3,762.3z"/>
<path class="st223" d="M877.5,778c-2.7-28-38-16.9-23.1,6.4c15.7,29.1,15.5,35.7-8.9,56.9c-7.2,6.3-1.2,22.2-16.6,20.9
	c-25.1-5.7,0.6-68.7-38.8-114.7c2-34.3,14.2-18.7,9.2-68.1c-3.7-27.5,43.2-36,58.4-13.1C902.2,675.6,880,746.1,877.5,778z"/>
<path class="st224" d="M797.6,646.5c12.2-27.3-17.5-60.7,7.9-64.3c47.6,5.2,28.2,22.5,48.4,52c-4.5,8.5-16.4,7.1-24.5,7.5
	C816.7,639.2,808.8,660,797.6,646.5z"/>
<path class="st224" d="M857.7,666.2c-15.4-9.7-32.2-2.4-48.3-3.7c-16.3-27.4,31.9-17.3,43.8-27.8C860.7,642,856,656.4,857.7,666.2z"
	/>
<path class="st84" d="M745.5,618.5c5.8-10,12.7-19.5,12-32C765,593.6,760.5,638.9,745.5,618.5z"/>
<path class="st225" d="M653.9,1175c13.1-27.8,18.9,4.7,25.3-10.3c3.7-9.5-3.1-32.3,9.4-32.5c28.4,22.5-23.1,59.8,40.4,62
	C697,1243.6,701.7,1171.9,653.9,1175z"/>
<path class="st226" d="M809.1,647c-39.5,64.5,60.1,248.6-32.8,255.4c17.2-9.9,34.2-82.3-2.1-66.3c-20,6.5-3.1-42.6-28.6-69.6
	c30.8-9.8-0.2-67.2,39.1-66.6C819.1,756.1,777.5,633.1,809.1,647z"/>
<path class="st226" d="M801.5,910.6c30.3,26.6-49.9,23.4-22,12.7C791.9,927,797,919.6,801.5,910.6z"/>
<path class="st96" d="M813.9,1498.4c-6.6,2.2-5.6-8.4-2.4-12.3C814.2,1489.8,814.2,1494,813.9,1498.4z"/>
<path class="st227" d="M949.6,1418.2c27.3,30.4,63.7-38.5,33.3,33.8C981.9,1502,909.7,1404.9,949.6,1418.2z"/>
<path class="st228" d="M1473.6,754.2c-126.8,93.4-36.6-119.7,0-64.3C1454.9,711.5,1466.6,732.9,1473.6,754.2z"/>
<path class="st229" d="M1457.7,614.5c63.6,12.9-45.8,133.5-44.4,68.4C1431.3,661.4,1440.3,636.1,1457.7,614.5z"/>
<path class="st230" d="M1425.5,698.6c19.7-16.2,69-83.3,48.6-16.3c-13.7-0.5-14.4,15.6-25.6,20.1
	C1442.2,708.3,1408.8,710.4,1425.5,698.6z"/>
<path class="st231" d="M1457.7,614.5c-37.1,127.2-74.6,49.6-24.2,4C1443.4,628.6,1451.1,624.8,1457.7,614.5z"/>
<path class="st232" d="M1433.4,618.5c-4.8,8.8-9.2,25.4-22.4,18.8C1402.8,622.5,1425.9,619.4,1433.4,618.5z"/>
<path class="st233" d="M1425.5,782.5c63.7,89.8-176.8,75.2-100.2-20.2c38.5-11.2,12.8,40.2,46.7,30.4
	C1415.5,806.5,1403.6,782.1,1425.5,782.5z"/>
<path class="st234" d="M1549.2,914.4c10.3,4,31.7-3.4,20.4,16.5c-26.2,27.6-16.4,64.7-38.3,94.5
	C1519.1,989.5,1504.9,927.6,1549.2,914.4z"/>
<path class="st235" d="M1537.3,826.6c13.1,39.9-16.6,60.9-34.3,24.4C1504.4,836.8,1521.2,826.6,1537.3,826.6z"/>
<path class="st197" d="M1545.8,787.1c33.6-9.6,13.8,35.2,11.4,55.4C1545.6,826.4,1546.1,805.8,1545.8,787.1z"/>
<path class="st236" d="M1410,634c32.5-5.4-1.6,33.3,11.6,52.3c-7.7,26.9-15.6,54-40.1,55.5c-21.9-14.6-11.8-44.3,3.4-59.7
	C1382.2,665,1381.7,622.7,1410,634z"/>
<path class="st237" d="M1410,634c-9.5,3.9-14.8,10.6-14.5,21.2c-8.3,61.8-33-11.7-20.5-32.4C1384.6,602.5,1451.5,616.4,1410,634z"/>
<path class="st238" d="M1373.4,702.2c33.7,67.8-59,48.6-44.4-7.5C1341.1,673.7,1347.5,708.7,1373.4,702.2z"/>
<path class="st232" d="M1369.4,602.5c-15.4-13.6,6.6-30.8,12.5-43.6C1411.3,559,1398.2,620,1369.4,602.5z"/>
<path class="st178" d="M996.3,1346.7c-2.9,7.7-8.5-1.2-2.3-3.8C994.8,1344.3,995.7,1345.7,996.3,1346.7z"/>
<path class="st239" d="M1537.9,1394.2c9.7-18.5,5.9-38.6,9-57.7c1.7-23.9,34.9-16.8,22.9,5.4
	C1559.3,1359.1,1554.4,1379.5,1537.9,1394.2z"/>
<path class="st240" d="M1481.2,1274.6c6-17.5-8.8-31.7-7.8-48.5c8-11.1,19.9,6.1,28-3.9c10.1-2.3-3,29-0.4,36.6
	C1500.3,1270.6,1495.7,1279.3,1481.2,1274.6z"/>
<path class="st241" d="M1505.7,1226.3c-9.2-10.1-12.7-29.1,0-40C1511.2,1194.1,1516.8,1225.3,1505.7,1226.3z"/>
<path class="st211" d="M1325.3,762.4c-32.1,86.2,19,37.4,52.2,80.1c-15.9,1.2-30.5-8.2-47.9-2.9
	C1301.8,841.3,1295,757.9,1325.3,762.4z"/>
<path class="st213" d="M1277.5,806.6c11,3.1,12.3,17.8,23.9,20C1281,834.7,1280.3,819.4,1277.5,806.6z"/>
<path class="st213" d="M1289.4,874.5c-7.8-4.3,1.8-14.6,9.2-12.9C1305.8,867.5,1295.1,873.8,1289.4,874.5z"/>
<path class="st127" d="M1323.9,915.8c2.9-2.7,6.5-2,8.1,1.6C1333.2,923.2,1323.3,922,1323.9,915.8z"/>
<path class="st242" d="M809.4,874.4c-1.4-35.8,0.3-71.8-10.3-106.7C802.4,709.2,853.2,883.7,809.4,874.4z"/>
<path class="st243" d="M668.9,1030.5c15.4-6.9,50-9.9,55,10.6c0.4,11.8-9.9-1.3-12.8,4.7C702.7,1065.8,650.2,1056.4,668.9,1030.5z"
	/>
<path class="st244" d="M668.9,1030.5c1.4,28.7,30,12.6,40,27.9c-13.7-1.7-55,15.3-53.2-7.8C657.7,1043.3,650.3,1027.4,668.9,1030.5z
	"/>
<path class="st223" d="M817.8,874.2c2.8-11.3,7.9-4.7,15-0.5C827.8,873.9,822.8,874,817.8,874.2z"/>
<path class="st245" d="M1329.4,722.6c16,5.5,29.6,18,48.1,16.4C1393.4,854.8,1320.1,808.9,1329.4,722.6z"/>
<path class="st246" d="M853.3,634.6c-8.3,27.2-27.7,13.2-43.6,11.7C813.3,625.9,839,637.2,853.3,634.6z"/>
<path class="st247" d="M1372.9,798.4c-19.3-55.8,18.4-63.9,45.2-103.4C1430.2,714.6,1433.5,863.8,1372.9,798.4z"/>
<path class="st248" d="M1027,1701c-887.7-22.4-887.1-1323.8,0-1346C1914.5,377.3,1914.5,1678.8,1027,1701z"/>
</svg>
